<svg xmlns="http://www.w3.org/2000/svg" viewBox="0 0 500 500"><g id="freepik--background-complete--inject-641"><path d="M423.15,180.77c8.28,4.2,21.15-2,25.35-10.31s.51-19.62-7.76-23.83c-4.72-2.4-10.42-2.66-14.76-5.69-4-2.81-6.33-7.67-10.56-10.16-5.19-3.07-12.33-1.55-16.58,2.73s-5.78,10.77-5,16.75,3.67,11.51,7.24,16.38a38,38,0,0,0,12.11,11.21,29.1,29.1,0,0,0,15.57,3.66" style="fill:#f5f5f5"></path><path d="M442.93,170.3c.22.24-.9,1.83-3.48,3.57a22.24,22.24,0,0,1-23.18.68c-2.67-1.58-3.89-3.11-3.68-3.35s1.82.64,4.49,1.7a26.32,26.32,0,0,0,21.47-.64C441.15,171.06,442.67,170,442.93,170.3Z" style="fill:#fff"></path><path d="M445.23,156.38c.67-.24,1.85,1.41,2,3.78s-.84,4.15-1.53,4-.95-1.86-1.07-3.83S444.54,156.62,445.23,156.38Z" style="fill:#fff"></path><path d="M334.93,93.64c4-3.57,3.27-11.75-.3-15.71a10.58,10.58,0,0,0-14.37-.76c-2.25,2-3.57,5-6.08,6.74-2.34,1.57-5.42,1.81-7.63,3.56-2.71,2.15-3.37,6.29-1.95,9.44a11.58,11.58,0,0,0,7.94,6.14,20.82,20.82,0,0,0,10.27-.51,21.82,21.82,0,0,0,8.5-4.17,16.81,16.81,0,0,0,5.18-7.59" style="fill:#f5f5f5"></path><path d="M333.4,80.88c.31-.12,1.07.77,1.58,2.54a12.28,12.28,0,0,1-4.53,12.91c-1.51,1.06-2.66,1.28-2.83,1s.56-1.09,1.57-2.34a16.73,16.73,0,0,0,4-11.29C333.16,82.08,333,81,333.4,80.88Z" style="fill:#fff"></path><path d="M103.77,425.2c8.78-1.94,14.2-10.61,14.09-18.77s-4.58-15.75-9.8-22.42-11.31-12.82-15.45-20.07S86.47,347.87,90,340.37s14-12.53,22.11-9c5.36,2.35,8.46,7.67,9.47,13s.31,10.73,0,16.1c-.58,11.67,1.36,24.25,10,32.91s25.77,11,34.26,2.15c8-8.32,4.86-21.05.9-31.48s-8.42-21-9.56-32.11,1.43-23,9.84-31.1c4.57-4.41,12-7.51,17.89-4.58,4.74,2.38,6.52,7.93,5.81,12.78s-3.36,9.26-5.6,13.72c-7.12,14.2-10.24,30.35-6.65,45.6a53.08,53.08,0,0,0,30,36.19c15.56,6.79,35.69,5.21,48.49-5.27,15.88-13,17.18-34.6,22.32-53.4,1.32-4.82,3.09-9.79,7-13.26s10.6-4.89,15-1.89c3.32,2.27,4.47,6.43,3.9,10.15s-2.57,7.12-4.57,10.41c-4.81,7.94-9.85,15.89-12.63,24.58s-3.11,18.4,1.36,26.51c6,10.87,19.37,16.88,32.53,19.4,15.62,3,33.53,1.55,45.05-8.43,17.24-14.95,12.85-40.94,23.58-60.22,2.48-4.47,6-8.71,10.93-10.95s11.55-2,15.45,1.51c6.43,5.83,2.33,15.71-2.71,22.57-9.54,13-21.37,24.6-30,38.1s-13.87,29.87-8.72,44.75" style="fill:#ebebeb"></path><path d="M215,338.12c5.31-2.88,9.5-7.83,9.94-13.41A12.31,12.31,0,0,0,215.29,312a15.29,15.29,0,0,0-11.35,2.65,24.73,24.73,0,0,0-7.35,8.56,42.29,42.29,0,0,0-.17,40.95c1.14,2.07,3.19,4.37,5.69,3.84,2.8-.6,3.18-4,3.25-6.58A36.08,36.08,0,0,1,216,337.15" style="fill:#ebebeb"></path><path d="M217.85,270.88c4.34.61,7.69,4.68,7.1,8.6s-5,7-9.39,6.57-7.88-4.41-7.45-8.35,4.74-7.2,9.11-6.88" style="fill:#ebebeb"></path><path d="M143.73,293a15.87,15.87,0,0,0-11.47-4c-4.22.31-8.28,2.8-9.69,6.4a9.74,9.74,0,0,0,1.53,9.15,17.63,17.63,0,0,0,8.25,5.81c3.93,1.46,8.74,1.88,12.21-.34a9.37,9.37,0,0,0,4.1-8.21C148.56,298.69,146.8,295.71,143.73,293Z" style="fill:#ebebeb"></path><path d="M161.22,265.8c-4.34-.52-8.37,3.95-6.92,7.68s7.68,5,10.72,2.11,1.44-8.42-2.74-9.58" style="fill:#ebebeb"></path><path d="M398.93,278.62c-4.34-.51-8.36,4-6.92,7.68s7.69,5,10.72,2.12,1.44-8.43-2.74-9.59" style="fill:#ebebeb"></path><path d="M393.53,317.18c-3.58-.42-6.9,3.27-5.71,6.34s6.34,4.09,8.84,1.74,1.19-6.94-2.26-7.9" style="fill:#ebebeb"></path><path d="M393.53,317.06a5.72,5.72,0,0,0-5.58,3.13,4.11,4.11,0,0,0,1.18,5.22,6.57,6.57,0,0,0,5.74,1,4.42,4.42,0,0,0,3.21-4.22,5.17,5.17,0,0,0-3.65-5,.13.13,0,0,0-.06.25,4.91,4.91,0,0,1,3.42,4,4.19,4.19,0,0,1-2.4,4.48c-3.25,1.47-8.86-.77-7.49-5a5.47,5.47,0,0,1,5.63-3.64c.16,0,.16-.23,0-.25Z" style="fill:#e0e0e0"></path><path d="M433.43,309.65c-5.61-.67-10.82,5.12-8.95,9.94s9.94,6.42,13.87,2.73,1.86-10.89-3.55-12.4" style="fill:#ebebeb"></path><path d="M433.43,309.52a8.92,8.92,0,0,0-8.69,4.88,6.37,6.37,0,0,0,1.83,8.09,10.24,10.24,0,0,0,8.95,1.58,6.89,6.89,0,0,0,5-6.54,8.05,8.05,0,0,0-5.68-7.73c-.15-.05-.22.19-.06.24a7.74,7.74,0,0,1,5.41,6.35,6.6,6.6,0,0,1-3.79,7.08c-5.15,2.34-14-1.22-11.85-7.94a8.65,8.65,0,0,1,8.89-5.76c.16,0,.16-.23,0-.25Z" style="fill:#e0e0e0"></path><path d="M104.78,309.91c-2.7-.32-5.2,2.46-4.3,4.78s4.77,3.08,6.66,1.31.9-5.24-1.7-6" style="fill:#ebebeb"></path><path d="M96.2,474.56c.52-47.14-21.63-94.05-58.59-124-5-4.06-10.74-8.75-10.79-15.13-.07-9.2,12.63-13.95,21.16-10.2s13.56,12.34,18.35,20.24a344.86,344.86,0,0,0,45,58.81c6.12,6.43,13.44,13,22.38,13.2,13,.22,21.53-12.64,30.08-22.3,6.36-7.18,14.48-13.46,24-14.95s20.52,3.07,23.79,12c2.28,6.24.59,13.09,0,19.69s.7,14.35,6.51,17.69,13.54.51,18.78-3.78,9.39-9.93,15.32-13.22c11-6.11,24.61-2.57,37.12-.8s28.09-.09,33.25-11.44c3-6.52,1.37-14.08,2.05-21.2s5.86-15.22,13.05-14.16c8.58,1.27,10.73,13.86,18.93,16.63,7,2.36,14.38-4.36,15.58-11.55s-1.77-14.33-4.41-21.14-5-14.32-2.7-21.24,11.48-11.87,17.41-7.51c3.51,2.58,4.61,7.3,4.58,11.61-.06,7.54-2.72,14.79-4.81,22s-3.62,15.05-1.4,22.27,9.27,13.49,16.87,12.51c6-.77,10.5-5.53,14.48-10l30.54-34.21c4.46-5,9.14-10.15,15.37-12.72s14.49-1.69,18.33,3.78c3.18,4.53,2.44,10.87-.35,15.64s-7.26,8.32-11.63,11.75c-20,15.72-43.7,29.16-57.12,50.91C394.35,435,392.52,451.32,391,475" style="fill:#fafafa"></path><path d="M391,475s.17-3.79.77-11c.32-3.59.73-8.05,1.58-13.26a101.08,101.08,0,0,1,4.51-17.66,94.46,94.46,0,0,1,4.27-10A107,107,0,0,1,408,412.65l1.75-2.65c.6-.87,1.27-1.72,1.92-2.6,1.26-1.78,2.77-3.42,4.2-5.17a132.58,132.58,0,0,1,10-10q5.49-4.83,11.71-9.58c4.13-3.16,8.48-6.31,12.94-9.57s9.06-6.59,13.65-10.19a87.9,87.9,0,0,0,6.77-5.69,27.94,27.94,0,0,0,5.53-7.08,16.83,16.83,0,0,0,1.87-8.89,11.07,11.07,0,0,0-4.28-8,14.63,14.63,0,0,0-9-2.72,19.11,19.11,0,0,0-9.37,2.62,37,37,0,0,0-7.89,6.23c-2.41,2.4-4.66,5-7,7.61l-14.15,15.86L412,379.26a37.38,37.38,0,0,1-8.42,7.52,15.13,15.13,0,0,1-5.39,2,13,13,0,0,1-5.77-.41,17.59,17.59,0,0,1-9.19-7,19,19,0,0,1-2.57-5.32,25.87,25.87,0,0,1-1-5.86,42.26,42.26,0,0,1,1.25-11.89c.9-3.92,2.17-7.75,3.3-11.64a64.06,64.06,0,0,0,2.53-11.91,27,27,0,0,0,0-6.1,14.49,14.49,0,0,0-1.94-5.74,8.89,8.89,0,0,0-4.65-3.73,10.06,10.06,0,0,0-6,.16,14,14,0,0,0-8.67,8.33,22.61,22.61,0,0,0-.15,12.48,92.28,92.28,0,0,0,4.17,12.19A45.4,45.4,0,0,1,372.72,365a19.88,19.88,0,0,1-.56,6.6,16.44,16.44,0,0,1-3.16,5.86,14.36,14.36,0,0,1-5.35,4A9.9,9.9,0,0,1,357,382a12.81,12.81,0,0,1-5.64-3.69,51.71,51.71,0,0,1-4.15-5.32,31.49,31.49,0,0,0-4.29-5.11A9.82,9.82,0,0,0,337,365.2a8.75,8.75,0,0,0-6.1,2.07,16,16,0,0,0-4,5.29A20.15,20.15,0,0,0,325,379a59.66,59.66,0,0,0-.2,6.83c0,4.55.19,9.32-1.53,13.74a18.55,18.55,0,0,1-9.59,9.87,36,36,0,0,1-13.65,3.1,63.41,63.41,0,0,1-14-1c-4.6-.72-9.17-1.51-13.76-1.9a58.55,58.55,0,0,0-6.88-.19,36.67,36.67,0,0,0-6.77.94,27.25,27.25,0,0,0-6.31,2.48,32,32,0,0,0-5.47,4c-3.4,3-6.39,6.46-10,9.31a25.55,25.55,0,0,1-5.83,3.53,18.07,18.07,0,0,1-6.62,1.6,11.89,11.89,0,0,1-6.56-1.62,11.75,11.75,0,0,1-2.63-2.18,13.25,13.25,0,0,1-1.89-2.82c-2-4.1-2.29-8.74-1.92-13.13s1.23-8.75,1.07-13.09a19.66,19.66,0,0,0-1.18-6.33,15.81,15.81,0,0,0-3.4-5.38,22.11,22.11,0,0,0-11.06-6,25.24,25.24,0,0,0-12.54.47,36.79,36.79,0,0,0-11.18,5.64,58.57,58.57,0,0,0-9.15,8.43c-5.48,6.19-10.37,13-17,17.82a22.94,22.94,0,0,1-11.2,4.47,20.81,20.81,0,0,1-11.63-2.51,43.94,43.94,0,0,1-9.44-7.09c-2.82-2.71-5.43-5.57-8-8.39a346.48,346.48,0,0,1-28-34.84Q72.49,355.88,67,347C63.4,341,60,335,55.2,330.37A23.87,23.87,0,0,0,47,325a17.34,17.34,0,0,0-9.49-.5A15.33,15.33,0,0,0,29.45,329l-.39.43-.32.48c-.2.32-.44.63-.62,1a9.14,9.14,0,0,0-.8,2.13,9.6,9.6,0,0,0-.07,4.49,16.29,16.29,0,0,0,4.57,7.61A82.67,82.67,0,0,0,38.45,351c2.2,1.92,4.42,3.77,6.52,5.68l6,5.86A158.87,158.87,0,0,1,70.39,387,153.63,153.63,0,0,1,83.2,410.89l1.24,2.84c.41.94.73,1.9,1.09,2.83q1.05,2.81,2,5.48c.62,1.8,1.14,3.59,1.69,5.31s1.12,3.4,1.5,5.08a160,160,0,0,1,3.74,17.83c.34,2.62.72,5,.95,7.25s.32,4.24.45,6c.06.9.16,1.75.17,2.54s0,1.54,0,2.22c0,1.37,0,2.52,0,3.45,0,1.85,0,2.8,0,2.8s0-.95-.08-2.8c0-.92-.05-2.07-.08-3.44,0-.69,0-1.43-.05-2.22s-.12-1.64-.18-2.54q-.23-2.7-.48-6c-.24-2.22-.62-4.63-1-7.24a160.39,160.39,0,0,0-3.79-17.81c-.38-1.67-1-3.33-1.5-5.06s-1.08-3.51-1.7-5.3l-2.06-5.47c-.36-.93-.68-1.89-1.09-2.83L83,411a155.52,155.52,0,0,0-12.82-23.87,160.63,160.63,0,0,0-19.38-24.36l-6-5.84c-2.1-1.91-4.32-3.74-6.51-5.66a82.74,82.74,0,0,1-6.67-5.86,16.74,16.74,0,0,1-4.67-7.78A9.92,9.92,0,0,1,27,333a9.76,9.76,0,0,1,.84-2.22c.18-.35.43-.67.64-1,.12-.16.22-.33.34-.49l.4-.44a15.53,15.53,0,0,1,8.27-4.64,19.3,19.3,0,0,1,4.86-.43,8.5,8.5,0,0,1,1.23.1c.4.05.81.09,1.22.16a16.63,16.63,0,0,1,2.39.67,24.26,24.26,0,0,1,8.34,5.42c4.88,4.7,8.27,10.76,11.91,16.66s7.52,11.85,11.66,17.75a345.78,345.78,0,0,0,28,34.78c2.61,2.82,5.22,5.68,8,8.37a43.28,43.28,0,0,0,9.34,7,20.3,20.3,0,0,0,11.36,2.46,22.48,22.48,0,0,0,11-4.39c6.53-4.8,11.41-11.54,16.9-17.75a58.37,58.37,0,0,1,9.24-8.51,37.21,37.21,0,0,1,11.33-5.72,25.68,25.68,0,0,1,12.77-.48,22.55,22.55,0,0,1,11.32,6.17,16.39,16.39,0,0,1,3.52,5.55,20.54,20.54,0,0,1,1.21,6.49c.15,4.42-.69,8.78-1.07,13.15s-.08,8.9,1.86,12.85a12.8,12.8,0,0,0,1.82,2.72,10.9,10.9,0,0,0,8.8,3.62,17.58,17.58,0,0,0,6.42-1.55,25.15,25.15,0,0,0,5.72-3.46c3.51-2.82,6.5-6.26,9.92-9.3a32.27,32.27,0,0,1,5.56-4.07,28.17,28.17,0,0,1,6.45-2.53,36.91,36.91,0,0,1,6.87-1,59.75,59.75,0,0,1,6.95.19c4.62.39,9.2,1.19,13.79,1.91A63.91,63.91,0,0,0,300,412,35.78,35.78,0,0,0,313.44,409a18,18,0,0,0,9.32-9.59c1.68-4.28,1.54-9,1.5-13.54a61.16,61.16,0,0,1,.2-6.9,20.72,20.72,0,0,1,1.92-6.63,16.3,16.3,0,0,1,4.18-5.46,9.24,9.24,0,0,1,6.46-2.19,10.3,10.3,0,0,1,6.21,2.77,32.15,32.15,0,0,1,4.37,5.19,50.57,50.57,0,0,0,4.11,5.27,12.31,12.31,0,0,0,5.4,3.55,9.35,9.35,0,0,0,6.34-.44,13.84,13.84,0,0,0,5.16-3.87,15.72,15.72,0,0,0,3.06-5.67,19.3,19.3,0,0,0,.54-6.43A45,45,0,0,0,369,352.53a92.11,92.11,0,0,1-4.18-12.25,23,23,0,0,1,.16-12.77,13.74,13.74,0,0,1,3.54-5.34,14.25,14.25,0,0,1,5.45-3.29,10.52,10.52,0,0,1,6.33-.15,9.3,9.3,0,0,1,4.9,3.93,14.88,14.88,0,0,1,2,5.93,27,27,0,0,1,0,6.22,63.45,63.45,0,0,1-2.55,12c-1.13,3.9-2.4,7.73-3.3,11.61a42.27,42.27,0,0,0-1.24,11.76,21,21,0,0,0,3.49,10.95,17.21,17.21,0,0,0,8.94,6.82,12.67,12.67,0,0,0,5.57.39,14.57,14.57,0,0,0,5.23-1.94,37,37,0,0,0,8.32-7.42l14.66-16.41,14.16-15.85c2.32-2.59,4.58-5.2,7-7.62a37.12,37.12,0,0,1,8-6.29,19.45,19.45,0,0,1,9.56-2.66,15,15,0,0,1,9.26,2.8,11.46,11.46,0,0,1,4.43,8.28,17.27,17.27,0,0,1-1.92,9.1,28.2,28.2,0,0,1-5.61,7.17,88.37,88.37,0,0,1-6.81,5.71c-4.59,3.6-9.2,6.93-13.66,10.18s-8.82,6.4-13,9.55-8,6.34-11.69,9.55a132,132,0,0,0-10,9.92c-1.44,1.75-2.94,3.39-4.2,5.16-.65.87-1.32,1.71-1.93,2.59s-1.16,1.76-1.74,2.63a106.62,106.62,0,0,0-5.89,10.4,94.35,94.35,0,0,0-4.29,10,101.63,101.63,0,0,0-4.54,17.61c-.87,5.21-1.3,9.66-1.64,13.25s-.52,6.35-.66,8.19S391,475,391,475Z" style="fill:#e0e0e0"></path><circle cx="47.64" cy="432.67" r="9.72" style="fill:#f5f5f5"></circle><circle cx="430.65" cy="56.52" r="9.72" style="fill:#f5f5f5"></circle><path d="M433.92,63.26c-.27-.28.35-1.19.84-2.69a8.54,8.54,0,0,0-3.5-10.34C430,49.34,428.91,49,429,48.61s1.23-.66,3.11,0a8.64,8.64,0,0,1,4.35,12.83C435.3,63,434.12,63.51,433.92,63.26Z" style="fill:#fff"></path><path d="M72.52,170.64c-1-9.23-13.21-16.64-22.43-15.67s-16.75,10.24-15.78,19.47c.55,5.26,3.43,10.19,3.24,15.48-.17,4.9-3,9.48-2.79,14.39.25,6,5.41,11.19,11.31,12.42s12.18-1,16.77-4.9,7.67-9.35,9.81-15a37.86,37.86,0,0,0,2.83-16.25,29.16,29.16,0,0,0-5.39-15.07" style="fill:#f5f5f5"></path><path d="M65.57,198.56c-.38-.15.75-3.09,1.57-7.95a35.19,35.19,0,0,0,.35-8.53,25.1,25.1,0,0,0-2.93-9.8,19.61,19.61,0,0,0-6.85-7.35,17.59,17.59,0,0,0-13.51-2c-1.33.33-2.07.61-2.17.43s.5-.72,1.81-1.38a14.26,14.26,0,0,1,6.06-1.39,18.22,18.22,0,0,1,9,2.28A20.71,20.71,0,0,1,66.84,171a25.31,25.31,0,0,1,3,10.88,30.61,30.61,0,0,1-.94,9.07C67.6,196,65.84,198.69,65.57,198.56Z" style="fill:#fff"></path><path d="M59.34,207.86c.3.18.3.86-.11,1.78a8.45,8.45,0,0,1-6,4.5c-1,.13-1.65-.06-1.73-.4-.16-.72,1.74-1.72,3.73-3.22S58.69,207.51,59.34,207.86Z" style="fill:#fff"></path><circle cx="101.14" cy="72.38" r="9.72" style="fill:#f5f5f5"></circle><path d="M105,71.22c-.36.06-.75-.51-1.39-1.16a6.46,6.46,0,0,0-2.74-1.73,6.38,6.38,0,0,0-3.24.06c-.89.22-1.52.5-1.8.26s-.08-1,.9-1.87a5.46,5.46,0,0,1,8.48,2.37C105.63,70.38,105.35,71.18,105,71.22Z" style="fill:#fff"></path><path d="M48.84,334.92c-.49.55-2.94-.89-6.24-1.3s-6,.22-6.36-.45c-.14-.32.42-1,1.64-1.51a10,10,0,0,1,9.8,1.36C48.7,333.88,49.07,334.66,48.84,334.92Z" style="fill:#fff"></path><path d="M108.54,459.76c-.77.09-2.6-13.21-7.39-29s-10.52-27.87-9.82-28.22c.3-.15,2.15,2.68,4.57,7.58a134.22,134.22,0,0,1,7.75,19.89,133.83,133.83,0,0,1,4.52,20.86C108.85,456.33,108.88,459.72,108.54,459.76Z" style="fill:#fff"></path><path d="M47.61,428.64c.11.71-1,1.48-2.54,1.71s-2.82-.16-2.93-.87,1-1.47,2.54-1.7S47.5,427.93,47.61,428.64Z" style="fill:#fff"></path><path d="M466.29,350.4c-.34-.18-.18-1.07-.09-2.38a15.47,15.47,0,0,0-.4-5,15.64,15.64,0,0,0-2-4.55c-.71-1.11-1.27-1.82-1.06-2.14s1.17-.09,2.41.88a8.6,8.6,0,0,1,1.85,2.06,10.38,10.38,0,0,1,1.65,6.48,8.8,8.8,0,0,1-.63,2.68C467.36,349.93,466.57,350.57,466.29,350.4Z" style="fill:#fff"></path></g><g id="freepik--Mascara--inject-641"><path d="M433.76,280.72c-1.23-3.73,31-21.3,33.21-17.62S435.49,286,433.76,280.72Z" style="fill:#263238"></path><path d="M436.36,280.27c-5.9-1.79-7.23-4.1,1.09-1.08Z" style="fill:#263238"></path><path d="M463.27,265c.44-5.34,2.77-8.08,1.57-.13Z" style="fill:#263238"></path><path d="M464.36,265.19c2.3-5.5,5.34-7.9,1.43.17Z" style="fill:#263238"></path><path d="M435.85,278.59c-5-2.71-5.66-5.3,1.29-1Z" style="fill:#263238"></path><path d="M461.92,264.5c-1.93-4.63-.73-7.54,1.58-.51Z" style="fill:#263238"></path><path d="M437.23,277.37c-6-3.4-6.62-6.6,1.67-1.16Z" style="fill:#263238"></path><path d="M438.87,276c-5.41-3.89-5.63-7.2,1.75-1.07Z" style="fill:#263238"></path><path d="M441.12,274.62c-5.17-4.06-5.24-7.41,1.79-1Z" style="fill:#263238"></path><path d="M442.92,273.36c-4.53-4.51-4.2-7.94,1.85-.94Z" style="fill:#263238"></path><path d="M445.26,271.77c-5.05-4.16-5-7.52,1.8-1Z" style="fill:#263238"></path><path d="M447.08,270.52c-4.4-4.59-4-8,1.86-.92Z" style="fill:#263238"></path><path d="M449.5,269.35c-4.14-4.75-3.58-8.22,1.89-.88Z" style="fill:#263238"></path><path d="M451.45,268.23c-3.45-5.14-2.49-8.64,1.93-.77Z" style="fill:#263238"></path><path d="M453.81,267.08c-3.15-5.3-2-8.81,1.95-.73Z" style="fill:#263238"></path><path d="M455.85,266.11c-2.42-5.62-.9-9.14,2-.61Z" style="fill:#263238"></path><path d="M458.85,265.27c-2.42-5.63-.91-9.15,2-.61Z" style="fill:#263238"></path><path d="M435.84,279.42c-.89,5.44.84,7.58,1.61-.35Z" style="fill:#263238"></path><path d="M463.78,265.58c5.63,2.18,9.49,1.65.86-1.16Z" style="fill:#263238"></path><path d="M464.07,264.64c6.64.79,10.48-.46.48-1.21Z" style="fill:#263238"></path><path d="M437.31,280.6c.45,5.18,2.78,6.92,1.57-.56Z" style="fill:#263238"></path><path d="M463.63,266.86c3.82,3.69,7.33,4.12,1.25-1Z" style="fill:#263238"></path><path d="M439.19,280.1c.7,6.28,3.65,8.28,1.95-.76Z" style="fill:#263238"></path><path d="M441.35,279.47c1.46,6,4.72,7.78,1.89-.87Z" style="fill:#263238"></path><path d="M443.77,278.35c1.75,5.95,5.12,7.58,1.88-.91Z" style="fill:#263238"></path><path d="M445.88,277.54c2.5,5.66,6.14,7,1.81-1Z" style="fill:#263238"></path><path d="M448.58,276.46c1.9,5.9,5.32,7.48,1.86-.92Z" style="fill:#263238"></path><path d="M450.68,275.63c2.65,5.6,6.33,6.89,1.8-1Z" style="fill:#263238"></path><path d="M453,274.29c2.91,5.47,6.69,6.66,1.76-1.06Z" style="fill:#263238"></path><path d="M455,273.29c3.64,5.11,7.64,6,1.68-1.15Z" style="fill:#263238"></path><path d="M457.29,272c3.92,4.95,8,5.73,1.63-1.18Z" style="fill:#263238"></path><path d="M459.21,270.85c4.6,4.54,8.87,5,1.53-1.26Z" style="fill:#263238"></path><path d="M461.44,268.9c4.61,4.54,8.88,5,1.53-1.26Z" style="fill:#263238"></path><rect x="391.7" y="286.56" width="52.09" height="3.6" transform="translate(-81.75 197.99) rotate(-24.36)" style="fill:#263238"></rect><polygon points="414.8 300.55 370.29 316.87 364.57 304.23 405.83 282.41 414.8 300.55" style="fill:#455a64"></polygon></g><g id="freepik--Lipstick--inject-641"><path d="M375.68,236.57c.38-.27,8.58-6.67,8.58-6.67l14.89,20.43-13.09,9.87-9.22-8.89L373,241.05Z" style="fill:#D85F00"></path><path d="M447,197c7.29,1.12,6.37,4.54,3.61,8.39-14.72-.1-18.39-5.07-13.65-8.38l0-.08A28.23,28.23,0,0,1,447,197Z" style="fill:#D85F00"></path><path d="M398.71,250.65l-1.08.78c-1.94,1.42-6.86-2-11-7.64s-5.86-11.38-3.91-12.8l1.07-.78,31-22.52c-1.86,1.35,0,7,4.08,12.67s8.93,9.12,10.79,7.77Z" style="fill:#263238"></path><path d="M390.8,256.72,364.49,276a6.63,6.63,0,0,1-2,.53h0c-2.81-.14-6.8-3-10-7.41s-4.75-9.29-3.93-12a6.25,6.25,0,0,1,1.07-1.59l26.45-19.24c-.1.51-.18,1-.26,1.54-.22,2.59,1.43,6.87,4.46,11s6.61,7.05,9.14,7.64h0C389.89,256.59,390.35,256.67,390.8,256.72Z" style="fill:#263238"></path><path d="M447,197c7.29,1.12,6.37,4.54,3.61,8.39-14.72-.1-18.39-5.07-13.65-8.38l0-.08A28.23,28.23,0,0,1,447,197Z" style="fill:#fff;opacity:0.30000000000000004"></path><path d="M437,197c-4.74,3.31-1.07,8.28,13.65,8.38-2.64,3.68-13.82,14.36-20.39,19.55-.61.48-1.17.91-1.68,1.28-1.33,1-5.15-2-8.54-6.69s-5.08-9.23-3.75-10.2c.5-.36,1.06-.76,1.69-1.19,4.58-3.16,12.28-8.05,15.87-10.06a11.42,11.42,0,0,1,3.13-1.15Z" style="fill:#D85F00"></path><path d="M429.66,228.13c-1.86,1.35-6.69-2.13-10.79-7.77s-5.94-11.32-4.08-12.67c.69-.51,1.81-.33,3.16.37l0,.06c-.63.43-1.19.83-1.69,1.19-1.33,1,.36,5.53,3.75,10.2s7.21,7.65,8.54,6.69c.51-.37,1.07-.8,1.68-1.28C430.55,226.46,430.37,227.61,429.66,228.13Z" style="fill:#455a64"></path><rect x="396.48" y="212.57" width="3.32" height="27.21" rx="1.35" transform="translate(341.94 -228.26) rotate(53.35)" style="fill:#fff;opacity:0.30000000000000004"></rect><rect x="370.57" y="241.79" width="3.32" height="3.91" rx="1.35" transform="translate(345.58 -200.39) rotate(53.35)" style="fill:#fff;opacity:0.30000000000000004"></rect><path d="M443.6,205.41a6.29,6.29,0,0,1-1.85-.22,9.75,9.75,0,0,1-4.15-1.79,5.44,5.44,0,0,1-1.6-2,4.45,4.45,0,0,1-.41-2,2.4,2.4,0,0,1,.64-1.77,7.45,7.45,0,0,0-.28,1.77,4.49,4.49,0,0,0,.48,1.83,5.63,5.63,0,0,0,1.49,1.79,11.24,11.24,0,0,0,3.92,1.83A7.07,7.07,0,0,1,443.6,205.41Z" style="fill:#fff"></path></g><g id="freepik--Rouge--inject-641"><circle cx="387.92" cy="102.47" r="42.54" transform="translate(181.94 446.79) rotate(-73.91)" style="fill:#455a64"></circle><rect x="358.89" y="138.18" width="8.35" height="2.43" transform="translate(47.92 367.27) rotate(-56.87)" style="fill:#263238"></rect><rect x="362.72" y="140.3" width="8.35" height="2.42" transform="translate(47.79 371.32) rotate(-56.85)" style="fill:#263238"></rect><circle cx="387.59" cy="102.25" r="37.8" transform="translate(-12.91 85.48) rotate(-12.38)" style="fill:#fff"></circle><path d="M356.59,82.35c14-19,36.63-20.95,53.58-4.7,16,15.35,19.45,35.3,2,52.38-14.71,14.37-38.68,8.71-47.41.62S342.54,101.42,356.59,82.35Z" style="fill:#f5f5f5"></path><path d="M410.51,77.87C397,64.93,379.9,63.55,366.43,73.11A42.12,42.12,0,0,1,384,84.52c14.22,15.32,15.05,37.67,1.85,49.93a28.06,28.06,0,0,1-5,3.73c10.29,2.14,22.69.83,31.65-7.93C430,113.17,426.53,93.22,410.51,77.87Z" style="fill:#fff"></path><ellipse cx="341.69" cy="177.53" rx="42.54" ry="45.32" transform="translate(5.26 364.84) rotate(-56.56)" style="fill:#455a64"></ellipse><path d="M310.19,156.09c14.94-18.57,37.36-20.23,55.7-4.9,17.69,14.8,20.21,36.69,2,54.45-15.29,14.93-36.57,10.38-48.56,1.71C308.5,199.51,294.89,175.11,310.19,156.09Z" style="fill:#ffbf9d"></path><path d="M374.35,198c11.53-16.61,6.42-34.5-8.34-46.72-18.6-15.41-41.12-14-55.9,4.18-.37.46-2.32,4.16-2.66,4.62Z" style="fill:#ff9a6c"></path><g style="opacity:0.30000000000000004"><path d="M371.14,179.32c.7,0,1.36,1,1.72,2.87a18.07,18.07,0,0,1-.55,7.87,27.68,27.68,0,0,1-5.54,10.51,29,29,0,0,1-26.93,10.25,27.84,27.84,0,0,1-11.13-4.15,18.39,18.39,0,0,1-5.65-5.51c-1-1.63-1.12-2.79-.62-3.28,1.09-1.07,4.32.77,9.4,2.12a35.2,35.2,0,0,0,8.87,1.27A26.56,26.56,0,0,0,359.76,194a35.57,35.57,0,0,0,5.78-6.84C368.44,182.78,369.62,179.26,371.14,179.32Z" style="fill:#fff"></path></g></g><g id="freepik--brush-3--inject-641"><path d="M274.14,139.93h0a7.42,7.42,0,0,1-5.37-9l13.81-54.36L297,80.2l-13.81,54.36A7.42,7.42,0,0,1,274.14,139.93Z" style="fill:#455a64"></path><path d="M282.66,65.33c-1.65-3.74-6.37-31.59-4.39-35.16,6.43-1.54,40.92,12.47,43,18.21-2.81,5.26-20,24.17-20,24.17Z" style="fill:#ae7461"></path><path d="M295.31,47.19a45.66,45.66,0,0,1,3.84-11.56c-9-3.57-17.91-6.17-20.88-5.46-2,3.57,2.74,31.42,4.39,35.16l14.91,5.8C294.61,64.6,293.61,56.09,295.31,47.19Z" style="fill:#6f4439"></path><path d="M278.27,30.17c3.93,3.38,27.78,16.72,43,18.21C320.77,43.78,288.94,27.16,278.27,30.17Z" style="fill:#ae7461"></path><path d="M289.2,35.84s.47,6.32,1.06,7.64,1.7-6.39,1.7-6.39Z" style="fill:#ae7461"></path><polygon points="302.35 71.47 282.16 65.47 280.21 80.52 296.8 85.13 302.35 71.47" style="fill:#e0e0e0"></polygon></g><g id="freepik--brush-2--inject-641"><path d="M220.25,80.66l2.48,69.66a3.24,3.24,0,1,0,6.46-.23l-2.48-69.66Z" style="fill:#455a64"></path><polygon points="224.56 55.27 219.81 55.44 220.26 81.06 226.72 80.83 224.56 55.27" style="fill:#e0e0e0"></polygon><polygon points="220.87 31.5 221.79 31.46 224.56 55.27 219.81 55.44 220.87 31.5" style="fill:#263238"></polygon><rect x="211.88" y="53.12" width="10.07" height="0.89" transform="translate(-1.77 7.75) rotate(-2.04)" style="fill:#263238"></rect><rect x="211.83" y="51.84" width="10.07" height="0.89" transform="translate(-1.72 7.75) rotate(-2.04)" style="fill:#263238"></rect><rect x="211.79" y="50.57" width="10.07" height="0.89" transform="matrix(1, -0.04, 0.04, 1, -1.68, 7.75)" style="fill:#263238"></rect><rect x="211.74" y="49.29" width="10.07" height="0.89" transform="translate(-1.63 7.75) rotate(-2.04)" style="fill:#263238"></rect><rect x="211.69" y="48.01" width="10.07" height="0.89" transform="translate(-1.58 7.73) rotate(-2.04)" style="fill:#263238"></rect><rect x="211.65" y="46.73" width="10.07" height="0.89" transform="translate(-1.54 7.76) rotate(-2.04)" style="fill:#263238"></rect><rect x="211.6" y="45.45" width="10.07" height="0.89" transform="translate(-1.5 7.73) rotate(-2.04)" style="fill:#263238"></rect><rect x="211.56" y="44.17" width="10.07" height="0.89" transform="translate(-1.45 7.74) rotate(-2.04)" style="fill:#263238"></rect><rect x="211.51" y="42.9" width="10.07" height="0.89" transform="translate(-1.4 7.73) rotate(-2.04)" style="fill:#263238"></rect><rect x="211.47" y="41.62" width="10.07" height="0.89" transform="translate(-1.36 7.73) rotate(-2.04)" style="fill:#263238"></rect><rect x="211.42" y="40.34" width="10.07" height="0.89" transform="translate(-1.32 7.74) rotate(-2.04)" style="fill:#263238"></rect><rect x="211.38" y="39.06" width="10.07" height="0.89" transform="translate(-1.27 7.74) rotate(-2.04)" style="fill:#263238"></rect><rect x="211.33" y="37.78" width="10.07" height="0.89" transform="translate(-1.22 7.71) rotate(-2.04)" style="fill:#263238"></rect><rect x="211.28" y="36.5" width="10.07" height="0.89" transform="translate(-1.18 7.73) rotate(-2.04)" style="fill:#263238"></rect><rect x="211.24" y="35.22" width="10.07" height="0.89" transform="translate(-1.13 7.73) rotate(-2.04)" style="fill:#263238"></rect><rect x="211.19" y="33.94" width="10.07" height="0.89" transform="translate(-1.09 7.73) rotate(-2.04)" style="fill:#263238"></rect><rect x="211.15" y="32.66" width="10.07" height="0.89" transform="translate(-1.04 7.72) rotate(-2.04)" style="fill:#263238"></rect><rect x="221.22" y="32.34" width="8.17" height="1.36" transform="translate(-1.03 8.04) rotate(-2.04)" style="fill:#263238"></rect><rect x="221.31" y="34.84" width="8.17" height="1.35" transform="translate(-1.12 8.05) rotate(-2.04)" style="fill:#263238"></rect><rect x="221.39" y="37.34" width="8.17" height="1.35" transform="matrix(1, -0.04, 0.04, 1, -1.21, 8.05)" style="fill:#263238"></rect><rect x="221.48" y="39.84" width="8.17" height="1.35" transform="translate(-1.3 8.06) rotate(-2.04)" style="fill:#263238"></rect><rect x="221.57" y="42.34" width="8.17" height="1.36" transform="translate(-1.39 8.06) rotate(-2.04)" style="fill:#263238"></rect><rect x="221.66" y="44.84" width="8.17" height="1.35" transform="translate(-1.48 8.07) rotate(-2.04)" style="fill:#263238"></rect><rect x="221.75" y="47.34" width="8.17" height="1.35" transform="translate(-1.57 8.07) rotate(-2.04)" style="fill:#263238"></rect><rect x="221.84" y="49.84" width="8.17" height="1.35" transform="translate(-1.66 8.08) rotate(-2.04)" style="fill:#263238"></rect><rect x="221.93" y="52.34" width="8.17" height="1.36" transform="translate(-1.74 8.08) rotate(-2.04)" style="fill:#263238"></rect></g><g id="freepik--brush-1--inject-641"><path d="M149,76.31c-8-8.65-12.74-8.39-14.16-7.29s-2.82,5.61,3.61,15.52c2.23,3.41,4.15,4,7.79,6l3.33-2.6,3-2.31C151.45,81.58,151.75,79.3,149,76.31Z" style="fill:#263238"></path><path d="M168.64,116.91l28.57,36.65a2.77,2.77,0,1,0,4.36-3.4L173,113.51Z" style="fill:#455a64"></path><polygon points="152.46 85.39 146.02 90.4 168.85 117.18 173.21 113.78 152.46 85.39" style="fill:#e0e0e0"></polygon></g><g id="freepik--Makeup--inject-641"><path d="M95.69,119.18c.86,1.48-3.17,5.41-9,8.76s-11.24,4.88-12.09,3.39,3.17-5.4,9-8.76S94.84,117.7,95.69,119.18Z" style="fill:#fafafa"></path><path d="M82.55,135.4s-5.86-1.35-8.24-4.4l21.62-11.56,7.17,8.32L87.72,141Z" style="fill:#f5f5f5"></path><path d="M74.51,130.9a1.05,1.05,0,0,1,0-.51,4,4,0,0,1,.66-1.29,19.36,19.36,0,0,1,3.9-3.77,44.76,44.76,0,0,1,7-4.35A35.19,35.19,0,0,1,90.77,119a14.74,14.74,0,0,1,2.64-.62,5,5,0,0,1,1.45,0l.38.1a3.35,3.35,0,0,1,.37.2,2.35,2.35,0,0,1,.3.33s0,0,.06,0a.46.46,0,0,1,.21.31l-.06-.14,7.14,8.28,0,0,.17.2-.19.17-15.41,13.2-.16.14-.14-.15-5.13-5.63.08,0A21.57,21.57,0,0,1,77,133.3a9.13,9.13,0,0,1-2.13-1.7h0c-.19-.21-.21-.25-.2-.25l.23.22h0a13.75,13.75,0,0,0,2.2,1.55,22.38,22.38,0,0,0,5.54,2.12h0l0,0,5.19,5.56-.3,0,15.36-13.27,0,.37,0,0-7.13-8.29.06-.15c-.11.09-.11.09-.32-.14-.07-.07-.1-.13-.17-.19l-.25-.13-.29-.08a4.72,4.72,0,0,0-1.3,0,13.6,13.6,0,0,0-2.56.58,34.18,34.18,0,0,0-4.58,1.87,46.3,46.3,0,0,0-7,4.22,20.28,20.28,0,0,0-4,3.62,4.15,4.15,0,0,0-.72,1.22A4.35,4.35,0,0,0,74.51,130.9Z" style="fill:#263238"></path><path d="M117.48,141.55l-7.76,6.67-2.5,2.16-7.76,6.67c2.71,5.87-5.63,12.17-5.63,12.17l66.58,77.36a9.8,9.8,0,0,0,13.83,1l9.57-8.24,2.51-2.16L195.9,229a9.81,9.81,0,0,0,1-13.83l-66.58-77.36S122.88,145.1,117.48,141.55Z" style="fill:#f5f5f5"></path><path d="M154.6,239.83,93.83,169.22s8-6.69,5.63-12.17l10.26-8.83L180,229.86l-12.08,10.4C163.8,243.79,157.84,243.6,154.6,239.83Z" style="fill:#ff9a6c"></path><path d="M191.12,208.4l-61.07-71s-7.51,7.27-12.57,4.11l-10.26,8.83L177.48,232l12.08-10.4C193.66,218.08,194.36,212.17,191.12,208.4Z" style="fill:#ff9a6c"></path><path d="M130.31,137.74s-.12-.12-.34-.37L129,136.3l-3.62-4.14L112.21,117l-9.06-10.47a11.64,11.64,0,0,0-1.27-1.35,5.42,5.42,0,0,0-1.57-.94,5.74,5.74,0,0,0-3.71-.13,5.88,5.88,0,0,0-1.7.89c-.51.39-1,.87-1.54,1.3L90.21,109,76.86,120.51l-7.06,6.08L68,128.14a16.44,16.44,0,0,0-1.72,1.59A5.54,5.54,0,0,0,65.06,134a5.47,5.47,0,0,0,1.17,2.7c.65.78,1.34,1.56,2,2.34l4,4.62q3.94,4.58,7.69,9C84.89,158.46,89.61,164,94,169l-.32,0,26.48-22.63,7.49-6.37,2-1.68.52-.43.19-.15-.15.15-.48.44c-.46.39-1.1,1-1.93,1.69l-7.37,6.42L93.94,169.35l-.17.15-.15-.18L79.51,153c-2.5-2.9-5.07-5.89-7.7-8.93l-4-4.62c-.67-.78-1.35-1.55-2-2.36a6.08,6.08,0,0,1,.06-7.66,16.23,16.23,0,0,1,1.79-1.66l1.8-1.54,7.06-6.08L89.9,108.64l3.15-2.71c.53-.44,1-.89,1.57-1.32a6,6,0,0,1,1.85-1,6.15,6.15,0,0,1,4,.15,5.77,5.77,0,0,1,1.7,1,12.3,12.3,0,0,1,1.31,1.41c3.26,3.8,6.29,7.35,9.06,10.59,5.51,6.45,10,11.68,13.06,15.32l3.52,4.15.9,1.08Z" style="fill:#263238"></path><path d="M92.9,164.71c-.11.09-5.61-6.11-12.28-13.86s-12-14.11-11.88-14.2,5.61,6.11,12.28,13.86S93,164.62,92.9,164.71Z" style="fill:#263238"></path><rect x="89.6" y="134.2" width="27" height="18.1" rx="2.12" transform="translate(-68.49 101.93) rotate(-40.72)" style="fill:#e0e0e0"></rect><rect x="84.62" y="133.46" width="22.6" height="4.19" rx="1.47" transform="translate(-65.21 95.38) rotate(-40.72)" style="fill:#e0e0e0"></rect><path d="M106.58,128.16c.09.11-4,3.77-9.09,8.17s-9.34,7.88-9.44,7.77,4-3.76,9.1-8.17S106.48,128.05,106.58,128.16Z" style="fill:#263238"></path><path d="M102.15,127.3a97.5,97.5,0,0,1-7.57,6.86,96.91,96.91,0,0,1-7.91,6.46c-.09-.11,3.3-3.18,7.57-6.86A101.09,101.09,0,0,1,102.15,127.3Z" style="fill:#263238"></path><path d="M118.51,142c.09.11-4.06,3.84-9.28,8.33s-9.53,8.05-9.62,7.94,4.06-3.84,9.28-8.33S118.41,141.91,118.51,142Z" style="fill:#263238"></path><path d="M130.35,137.79s.17.16.47.5.74.85,1.32,1.49l5,5.79c4.38,5.05,10.69,12.34,18.48,21.35L183,198.62q3.87,4.49,7.91,9.17l4.08,4.74,2.07,2.4a10.87,10.87,0,0,1,1.72,2.78,10.18,10.18,0,0,1,.4,6.52,10.57,10.57,0,0,1-3.75,5.47l-10.21,8.79L175,247.28a10.54,10.54,0,0,1-6,2.89,10.15,10.15,0,0,1-6.39-1.36,11,11,0,0,1-2.5-2.11l-2.07-2.41L154,239.55l-7.89-9.18-27.28-31.78-18.35-21.46c-2.15-2.53-3.83-4.49-5-5.85l-1.29-1.53c-.28-.34-.42-.53-.42-.53s.16.16.46.5l1.32,1.5,5,5.78c4.37,5.06,10.68,12.34,18.48,21.35l27.36,31.71,7.91,9.16q2,2.35,4.08,4.74c1.41,1.57,2.62,3.36,4.44,4.41a9.64,9.64,0,0,0,6.07,1.29,10.1,10.1,0,0,0,5.69-2.77q5-4.33,10.21-8.79l10.21-8.79a10,10,0,0,0,3.59-5.21,9.68,9.68,0,0,0-.38-6.2c-.76-2-2.36-3.42-3.7-5l-4.07-4.74c-2.69-3.13-5.32-6.2-7.89-9.18l-27.28-31.78L137,145.7l-5-5.85-1.29-1.53C130.49,138,130.35,137.79,130.35,137.79Z" style="fill:#263238"></path><path d="M188.73,222.33c.09.11-4.31,4-9.83,8.8s-10.07,8.52-10.17,8.41,4.31-4,9.83-8.8S188.63,222.22,188.73,222.33Z" style="fill:#263238"></path><path d="M150.84,219.94h0a4.26,4.26,0,0,1-6-.45l-39-45.29a4.25,4.25,0,0,1,.45-6h0a4.26,4.26,0,0,1,6,.45l39,45.28A4.25,4.25,0,0,1,150.84,219.94Z" style="fill:#fff;opacity:0.30000000000000004"></path><path d="M160.09,225.29a3.52,3.52,0,1,1-5-.37A3.52,3.52,0,0,1,160.09,225.29Z" style="fill:#fff;opacity:0.30000000000000004"></path><path d="M77.47,131.45c-.06,0-.1-.28.23-.49a.65.65,0,0,1,.67,0,.72.72,0,0,1-.33,1.32.65.65,0,0,1-.6-.29c-.2-.34,0-.57,0-.54s.09.19.25.3a.3.3,0,0,0,.25.06.35.35,0,0,0,.21-.2.32.32,0,0,0-.09-.27.31.31,0,0,0-.25-.07C77.65,131.33,77.54,131.47,77.47,131.45Z" style="fill:#263238"></path><path d="M96.16,120a19.43,19.43,0,0,1-2.93,1.74c-1.84,1-4.41,2.35-7.29,3.77s-5.51,2.64-7.43,3.49a21.45,21.45,0,0,1-3.16,1.27,22.29,22.29,0,0,1,3-1.6l7.36-3.63,7.36-3.63A24.53,24.53,0,0,1,96.16,120Z" style="fill:#263238"></path></g><g id="freepik--eye-shadows--inject-641"><path d="M77.26,215c1.89-2.27,4.68-3.06,6.23-1.78L153.09,271c1.55,1.29,1.28,4.18-.6,6.45L119.68,317c-1.89,2.27-4.67,3.07-6.22,1.78L43.85,261c-1.55-1.29-1.28-4.17.61-6.44Z" style="fill:#455a64"></path><path d="M102.78,286.77a10.29,10.29,0,1,1,1.34,14.49A10.28,10.28,0,0,1,102.78,286.77Z" style="fill:#D85F00"></path><path d="M81.67,269.24A10.29,10.29,0,1,1,83,283.74,10.29,10.29,0,0,1,81.67,269.24Z" style="fill:#ff9a6c"></path><path d="M60.56,251.72a10.29,10.29,0,1,1,1.34,14.49A10.28,10.28,0,0,1,60.56,251.72Z" style="fill:#ffbf9d"></path><path d="M119.69,266.4A10.29,10.29,0,1,1,121,280.89,10.27,10.27,0,0,1,119.69,266.4Z" style="fill:#263238"></path><path d="M98.58,248.87a10.29,10.29,0,1,1,1.35,14.49A10.29,10.29,0,0,1,98.58,248.87Z" style="fill:#e0e0e0"></path><path d="M77.47,231.35a10.29,10.29,0,1,1,1.35,14.49A10.28,10.28,0,0,1,77.47,231.35Z" style="fill:#fafafa"></path><path d="M117.25,288.06a10.27,10.27,0,0,0-16.76,6.55,10.28,10.28,0,1,1,20.39.09A10.22,10.22,0,0,0,117.25,288.06Z" style="opacity:0.30000000000000004"></path><path d="M102.6,293.71c1.28-1.54,4.46-1,7.1,1.2s3.76,5.22,2.49,6.76-4.46,1-7.1-1.2S101.33,295.25,102.6,293.71Z" style="fill:#fff;opacity:0.2"></path><path d="M96.15,270.53a10.28,10.28,0,0,0-16.76,6.56,10.28,10.28,0,1,1,20.39.09A10.31,10.31,0,0,0,96.15,270.53Z" style="opacity:0.30000000000000004"></path><path d="M81.5,276.18c1.27-1.53,4.45-1,7.1,1.2s3.76,5.23,2.48,6.76-4.46,1-7.1-1.2S80.22,277.72,81.5,276.18Z" style="fill:#fff;opacity:0.2"></path><path d="M75,253a10.27,10.27,0,0,0-16.76,6.56,10.28,10.28,0,1,1,20.39.08A10.22,10.22,0,0,0,75,253Z" style="opacity:0.30000000000000004"></path><path d="M60.39,258.66c1.27-1.54,4.45-1,7.1,1.2s3.76,5.22,2.49,6.76-4.46,1-7.11-1.2S59.11,260.2,60.39,258.66Z" style="fill:#fff;opacity:0.2"></path><path d="M134.17,267.68a10.29,10.29,0,0,0-16.77,6.56,10.28,10.28,0,1,1,20.4.09A10.31,10.31,0,0,0,134.17,267.68Z" style="opacity:0.30000000000000004"></path><path d="M119.52,273.34c1.27-1.54,4.45-1,7.1,1.19s3.76,5.23,2.48,6.77-4.46,1-7.1-1.2S118.24,274.87,119.52,273.34Z" style="fill:#fff;opacity:0.2"></path><path d="M113.06,250.16a10.28,10.28,0,0,0-16.76,6.56,10.28,10.28,0,1,1,20.39.09A10.22,10.22,0,0,0,113.06,250.16Z" style="opacity:0.30000000000000004"></path><path d="M98.41,255.82c1.28-1.54,4.45-1,7.1,1.19s3.76,5.22,2.48,6.76-4.45,1-7.1-1.2S97.13,257.35,98.41,255.82Z" style="fill:#fff;opacity:0.2"></path><path d="M92,232.64a10.27,10.27,0,0,0-16.77,6.56,10.28,10.28,0,1,1,20.39.08A10.23,10.23,0,0,0,92,232.64Z" style="opacity:0.30000000000000004"></path><path d="M77.3,238.29c1.28-1.54,4.46-1,7.11,1.2s3.75,5.22,2.48,6.76-4.46,1-7.1-1.2S76,239.82,77.3,238.29Z" style="fill:#fff"></path><rect x="70" y="246.25" width="8.53" height="97.77" transform="translate(-200.25 163.75) rotate(-50.3)" style="fill:#455a64"></rect><rect x="99.65" y="305.34" width="2.6" height="9.44" transform="translate(-202.09 189.67) rotate(-50.3)" style="fill:#263238"></rect><rect x="53.4" y="266.94" width="2.6" height="9.44" transform="translate(-189.25 140.21) rotate(-50.3)" style="fill:#263238"></rect></g></svg>
