<svg width="1920" height="640" viewBox="0 0 1920 640" fill="none" xmlns="http://www.w3.org/2000/svg">
<rect width="1920" height="640" fill="#F5E3C4"/>
<path d="M1707 527.46H1207V527.71H1707V527.46Z" fill="#EBEBEB"/>
<path d="M1564.68 534.27H1531.56V534.52H1564.68V534.27Z" fill="#EBEBEB"/>
<path d="M1644.26 536.46H1635.57V536.71H1644.26V536.46Z" fill="#EBEBEB"/>
<path d="M1553.88 543.55H1534.69V543.8H1553.88V543.55Z" fill="#EBEBEB"/>
<path d="M1457 540.17H1413.81V540.42H1457V540.17Z" fill="#EBEBEB"/>
<path d="M1404.9 540.17H1398.57V540.42H1404.9V540.17Z" fill="#EBEBEB"/>
<path d="M1377.99 535.95H1284.31V536.2H1377.99V535.95Z" fill="#EBEBEB"/>
<path d="M1444 482.86H1250.91C1249.4 482.857 1247.95 482.255 1246.88 481.184C1245.81 480.114 1245.21 478.663 1245.21 477.15V205.72C1245.22 204.216 1245.83 202.778 1246.9 201.718C1247.96 200.658 1249.41 200.063 1250.91 200.06H1444C1445.51 200.06 1446.97 200.662 1448.04 201.732C1449.11 202.803 1449.71 204.256 1449.71 205.77V477.15C1449.71 478.664 1449.11 480.117 1448.04 481.188C1446.97 482.258 1445.51 482.86 1444 482.86ZM1250.91 200.26C1249.46 200.263 1248.08 200.839 1247.06 201.863C1246.03 202.886 1245.46 204.274 1245.46 205.72V477.15C1245.46 478.596 1246.03 479.984 1247.06 481.007C1248.08 482.031 1249.46 482.607 1250.91 482.61H1444C1445.45 482.607 1446.83 482.031 1447.86 481.008C1448.88 479.984 1449.46 478.597 1449.46 477.15V205.72C1449.46 204.273 1448.88 202.885 1447.86 201.862C1446.83 200.839 1445.45 200.263 1444 200.26H1250.91Z" fill="#EBEBEB"/>
<path d="M1660.31 482.86H1467.21C1465.7 482.857 1464.25 482.255 1463.18 481.185C1462.11 480.114 1461.5 478.664 1461.5 477.15V205.72C1461.52 204.215 1462.12 202.777 1463.19 201.718C1464.26 200.658 1465.71 200.063 1467.21 200.06H1660.31C1661.81 200.065 1663.25 200.662 1664.32 201.722C1665.38 202.781 1665.99 204.218 1666 205.72V477.15C1666 478.661 1665.4 480.11 1664.33 481.181C1663.27 482.251 1661.82 482.855 1660.31 482.86ZM1467.21 200.26C1465.76 200.263 1464.38 200.839 1463.35 201.862C1462.33 202.885 1461.75 204.273 1461.75 205.72V477.15C1461.75 478.597 1462.33 479.984 1463.35 481.008C1464.38 482.031 1465.76 482.607 1467.21 482.61H1660.31C1661.76 482.607 1663.14 482.031 1664.17 481.008C1665.19 479.984 1665.77 478.597 1665.77 477.15V205.72C1665.77 204.273 1665.19 202.885 1664.17 201.862C1663.14 200.839 1661.76 200.263 1660.31 200.26H1467.21Z" fill="#EBEBEB"/>
<path d="M1447 463.57C1446.94 462.16 1446.82 460.73 1446.63 459.29C1444.63 444.23 1435.82 430.81 1423.75 422.06C1423.77 420.746 1423.69 419.432 1423.51 418.13C1421.51 403.54 1408.12 391.71 1393.51 391.71C1390.64 391.698 1387.79 392.185 1385.08 393.15C1374.85 379.51 1358.55 370.41 1341.36 370.41C1335.8 370.382 1330.28 371.4 1325.1 373.41C1319.49 365.3 1310.1 359.8 1300.1 359.8C1285.51 359.8 1275.27 371.63 1277.24 386.22C1277.49 388.061 1277.91 389.874 1278.52 391.63C1259.78 397.63 1248.01 415.78 1250.91 437.28C1251.38 440.731 1252.2 444.126 1253.36 447.41C1238.86 455.27 1230.36 471.41 1232.87 490.03C1234.87 505.22 1243.87 518.74 1256.05 527.48H1452.85C1460.16 518.85 1463.79 507.06 1462 494.06C1460.37 482.561 1455.11 471.882 1447 463.57Z" fill="#F0F0F0"/>
<path d="M1689.11 447.45C1689.63 445.68 1690.11 443.89 1690.46 442.08C1694.39 423.23 1689.76 406.43 1679.36 395.47C1679.92 393.861 1680.38 392.218 1680.73 390.55C1684.54 372.27 1673.85 357.46 1656.86 357.46C1653.31 357.481 1649.79 358.093 1646.44 359.27C1640.21 342.17 1625 330.77 1605 330.77C1598.1 330.815 1591.26 332.085 1584.81 334.52C1581.68 324.36 1573.03 317.52 1561.45 317.52C1544.45 317.52 1527.6 332.33 1523.79 350.6C1523.32 352.831 1523.07 355.101 1523.03 357.38C1498.72 364.86 1477.42 387.62 1471.81 414.54C1470.94 418.715 1470.48 422.965 1470.44 427.23C1450.27 437.07 1433.63 457.28 1428.78 480.61C1424.78 499.61 1429.54 516.56 1440.13 527.5H1669.27C1681.73 516.508 1690.37 501.837 1693.94 485.61C1697 471.06 1694.93 457.8 1689.11 447.45Z" fill="#F0F0F0"/>
<path d="M1261 258.73H1252.67V431.4H1261V258.73Z" fill="#E0E0E0"/>
<path d="M1264 255.39H1249.67V258.72H1264V255.39Z" fill="#E0E0E0"/>
<path d="M1179.5 201.33L1180.5 187L1178.83 181L1177.17 187L1178.17 201.33H1179.5Z" fill="#E0E0E0"/>
<path d="M1264 255.39H1249.67L1239.67 214.06H1274L1264 255.39Z" fill="#F5F5F5"/>
<path d="M1260.38 255.39H1253.28L1248.33 214.06H1265.33L1260.38 255.39Z" fill="#FAFAFA"/>
<path d="M1268.67 519.73H1245L1249.79 431.39H1263.88L1268.67 519.73Z" fill="#E0E0E0"/>
<path d="M1280.44 527.46V519.73H1233.22V527.46" fill="#E0E0E0"/>
<path d="M1256.83 195C1251.78 195.003 1246.93 197.012 1243.36 200.586C1239.79 204.16 1237.78 209.007 1237.78 214.06H1275.89C1275.89 211.557 1275.4 209.079 1274.44 206.766C1273.48 204.454 1272.08 202.352 1270.31 200.583C1268.54 198.813 1266.44 197.409 1264.12 196.451C1261.81 195.493 1259.33 195 1256.83 195Z" fill="#E0E0E0"/>
<path d="M1182.06 191.71C1182.06 192.349 1181.87 192.975 1181.52 193.507C1181.17 194.04 1180.66 194.455 1180.07 194.701C1179.48 194.947 1178.83 195.013 1178.21 194.889C1177.58 194.766 1177 194.459 1176.55 194.007C1176.1 193.556 1175.79 192.981 1175.66 192.354C1175.54 191.727 1175.6 191.077 1175.84 190.486C1176.09 189.895 1176.5 189.39 1177.03 189.035C1177.57 188.68 1178.19 188.49 1178.83 188.49C1179.68 188.49 1180.5 188.829 1181.11 189.433C1181.72 190.036 1182.06 190.855 1182.06 191.71Z" fill="#E0E0E0"/>
<path d="M1426 572.62C1533.08 572.62 1619.89 567.552 1619.89 561.3C1619.89 555.048 1533.08 549.98 1426 549.98C1318.92 549.98 1232.11 555.048 1232.11 561.3C1232.11 567.552 1318.92 572.62 1426 572.62Z" fill="#F5F5F5"/>
<path d="M1609.11 252.14H1304.89V558.38H1609.11V252.14Z" fill="#FF9933"/>
<path d="M1528.98 283.14H1385.02C1383.23 283.14 1381.78 284.591 1381.78 286.38V314.23C1381.78 316.019 1383.23 317.47 1385.02 317.47H1528.98C1530.77 317.47 1532.22 316.019 1532.22 314.23V286.38C1532.22 284.591 1530.77 283.14 1528.98 283.14Z" fill="white"/>
<path d="M1524.72 287.59H1389.27C1388.38 287.59 1387.66 288.311 1387.66 289.2V311.42C1387.66 312.309 1388.38 313.03 1389.27 313.03H1524.72C1525.61 313.03 1526.33 312.309 1526.33 311.42V289.2C1526.33 288.311 1525.61 287.59 1524.72 287.59Z" fill="#FF9933"/>
<path d="M1394.24 305.2L1402.24 304.7C1402.3 305.771 1402.65 306.805 1403.24 307.7C1403.68 308.249 1404.25 308.685 1404.9 308.972C1405.54 309.259 1406.25 309.388 1406.95 309.35C1407.95 309.415 1408.94 309.116 1409.73 308.51C1410.04 308.275 1410.29 307.973 1410.46 307.626C1410.64 307.279 1410.73 306.898 1410.73 306.51C1410.72 306.147 1410.64 305.79 1410.48 305.463C1410.32 305.137 1410.09 304.849 1409.81 304.62C1409.19 304.06 1407.75 303.53 1405.5 303.04C1401.81 302.21 1399.19 301.11 1397.61 299.74C1396.85 299.097 1396.24 298.29 1395.83 297.379C1395.42 296.469 1395.22 295.478 1395.24 294.48C1395.24 293.056 1395.66 291.663 1396.45 290.48C1397.36 289.165 1398.63 288.146 1400.11 287.55C1402.25 286.751 1404.52 286.387 1406.8 286.48C1410.27 286.48 1412.93 287.13 1414.8 288.42C1415.75 289.156 1416.54 290.087 1417.1 291.151C1417.66 292.216 1417.99 293.388 1418.06 294.59L1410.13 295.06C1410.11 294.553 1409.98 294.056 1409.76 293.6C1409.53 293.144 1409.22 292.738 1408.83 292.409C1408.45 292.08 1408 291.834 1407.51 291.686C1407.03 291.538 1406.51 291.492 1406.01 291.55C1405.23 291.495 1404.45 291.714 1403.81 292.17C1403.58 292.348 1403.39 292.576 1403.26 292.838C1403.13 293.1 1403.06 293.388 1403.06 293.68C1403.07 293.909 1403.13 294.134 1403.23 294.337C1403.34 294.54 1403.49 294.715 1403.68 294.85C1404.53 295.389 1405.5 295.731 1406.5 295.85C1409.21 296.339 1411.86 297.144 1414.39 298.25C1415.81 298.902 1417.01 299.942 1417.86 301.25C1418.58 302.459 1418.96 303.842 1418.95 305.25C1418.95 306.965 1418.45 308.642 1417.5 310.07C1416.51 311.565 1415.1 312.731 1413.45 313.42C1411.37 314.244 1409.15 314.632 1406.91 314.56C1402.28 314.56 1399.08 313.67 1397.29 311.89C1395.5 310.1 1394.42 307.725 1394.24 305.2Z" fill="white"/>
<path d="M1426.6 287H1435V296.52H1444.18V287H1452.63V314.2H1444.18V303.2H1435V314.2H1426.6V287Z" fill="white"/>
<path d="M1460.58 300.62C1460.58 296.18 1461.82 292.723 1464.29 290.25C1466.76 287.777 1470.21 286.537 1474.63 286.53C1479.16 286.53 1482.65 287.747 1485.09 290.18C1487.53 292.613 1488.76 296.02 1488.77 300.4C1488.87 303.098 1488.32 305.781 1487.16 308.22C1486.12 310.226 1484.5 311.878 1482.52 312.97C1480.2 314.165 1477.61 314.747 1475 314.66C1472.39 314.753 1469.78 314.254 1467.39 313.2C1465.33 312.176 1463.63 310.56 1462.5 308.56C1461.16 306.134 1460.49 303.391 1460.58 300.62ZM1468.99 300.62C1468.99 303.36 1469.5 305.33 1470.52 306.53C1471.06 307.093 1471.71 307.54 1472.43 307.846C1473.15 308.152 1473.92 308.309 1474.7 308.309C1475.48 308.309 1476.25 308.152 1476.97 307.846C1477.69 307.54 1478.34 307.093 1478.88 306.53C1479.87 305.357 1480.37 303.247 1480.36 300.2C1480.36 297.64 1479.85 295.77 1478.81 294.59C1478.29 294.001 1477.64 293.536 1476.91 293.229C1476.18 292.923 1475.4 292.783 1474.61 292.82C1473.84 292.792 1473.07 292.94 1472.36 293.251C1471.66 293.563 1471.03 294.031 1470.53 294.62C1469.5 295.9 1469 297.88 1469 300.66L1468.99 300.62Z" fill="white"/>
<path d="M1496.68 287H1510.68C1513.72 287 1516 287.723 1517.52 289.17C1518.31 289.986 1518.91 290.957 1519.3 292.021C1519.7 293.085 1519.86 294.219 1519.79 295.35C1519.86 296.538 1519.67 297.726 1519.24 298.836C1518.81 299.946 1518.16 300.953 1517.31 301.79C1515.66 303.33 1513.14 304.11 1509.75 304.11H1505.15V314.2H1496.71L1496.68 287ZM1505.12 298.6H1507.18C1508.38 298.714 1509.58 298.414 1510.59 297.75C1510.91 297.49 1511.17 297.161 1511.34 296.786C1511.51 296.412 1511.6 296.003 1511.59 295.59C1511.6 295.189 1511.53 294.791 1511.38 294.418C1511.23 294.045 1511.01 293.706 1510.73 293.42C1510.17 292.82 1509.1 292.53 1507.52 292.53H1505.13L1505.12 298.6Z" fill="white"/>
<path opacity="0.5" d="M1328.1 327.91H1585.9C1587.37 327.91 1588.79 328.496 1589.83 329.538C1590.87 330.581 1591.46 331.995 1591.46 333.47V558.37H1322.54V333.48C1322.54 332.749 1322.68 332.025 1322.96 331.349C1323.24 330.673 1323.65 330.059 1324.16 329.542C1324.68 329.025 1325.29 328.614 1325.97 328.334C1326.65 328.054 1327.37 327.91 1328.1 327.91Z" fill="white"/>
<path opacity="0.4" d="M1619 354.01V371.55L1583.57 375.76L1550.68 379.68L1524.38 382.8L1500.64 385.62L1498.1 378.91L1495.38 371.74L1495.03 382.52L1494.91 386.3L1491.48 386.71L1465.18 389.84L1432.29 393.75L1405.98 396.87L1373.09 400.78L1346.78 403.91L1313.89 407.82L1295 410.06V392.53L1330.43 388.32L1363.32 384.41L1389.61 381.28L1412.69 378.54L1422.52 377.38L1448.82 374.25V374.24L1481.71 370.34L1508.02 367.2L1540.91 363.29L1567.22 360.17L1600.11 356.26L1619 354.01Z" fill="#FF9933"/>
<path opacity="0.4" d="M1619 517.7L1295 442.52V424.99L1619 500.16V517.7Z" fill="#FF9933"/>
<path d="M1304.88 558.38H1294.04C1292.85 558.38 1291.71 557.907 1290.87 557.065C1290.02 556.223 1289.55 555.081 1289.55 553.89V252.14H1304.88V558.38Z" fill="#263238"/>
<path d="M1619.96 558.38H1609.12V252.14H1624.45V553.88C1624.45 554.47 1624.34 555.055 1624.11 555.601C1623.89 556.147 1623.56 556.643 1623.14 557.061C1622.72 557.479 1622.23 557.811 1621.68 558.037C1621.14 558.264 1620.55 558.38 1619.96 558.38Z" fill="#263238"/>
<path opacity="0.3" d="M1526.81 327.91H1492.35L1432.48 558.38H1466.93L1526.81 327.91Z" fill="white"/>
<path opacity="0.3" d="M1552.19 327.91H1537.5L1477.62 558.38H1492.32L1552.19 327.91Z" fill="white"/>
<path opacity="0.3" d="M1431.03 327.91H1416.33L1356.45 558.38H1371.15L1431.03 327.91Z" fill="white"/>
<path d="M1462.34 324.41H1451.67V558.38H1462.34V324.41Z" fill="#FF9933"/>
<path d="M1644.78 261.27L1602.78 205.72H1311.23L1269.23 261.27C1264.43 268.43 1266.57 274.51 1274.23 274.51C1281.89 274.51 1291.6 268.43 1295.72 261.27H1296.08C1291.97 268.43 1294.69 274.51 1302.35 274.51C1310.01 274.51 1319.14 268.43 1322.57 261.27H1322.93C1319.51 268.43 1322.81 274.51 1330.47 274.51C1338.13 274.51 1346.67 268.43 1349.47 261.27H1349.83C1347.09 268.43 1350.98 274.51 1358.64 274.51C1366.3 274.51 1374.26 268.43 1376.33 261.27H1376.68C1374.63 268.43 1379.1 274.51 1386.76 274.51C1394.42 274.51 1401.76 268.43 1403.18 261.27H1403.54C1402.17 268.43 1407.22 274.51 1414.88 274.51C1422.54 274.51 1429.34 268.43 1430.03 261.27H1430.39C1429.71 268.43 1435.34 274.51 1443 274.51C1450.66 274.51 1456.88 268.43 1456.88 261.27H1457.24C1457.24 268.43 1463.46 274.51 1471.12 274.51C1478.78 274.51 1484.41 268.43 1483.73 261.27H1484C1484.69 268.43 1491.49 274.51 1499.15 274.51C1506.81 274.51 1511.86 268.43 1510.49 261.27H1510.85C1512.23 268.43 1519.61 274.51 1527.27 274.51C1534.93 274.51 1539.4 268.43 1537.35 261.27H1537.7C1539.77 268.43 1547.7 274.51 1555.39 274.51C1563.08 274.51 1566.94 268.43 1564.2 261.27H1564.56C1567.31 268.43 1575.85 274.51 1583.56 274.51C1591.27 274.51 1594.56 268.43 1591.1 261.27H1591.46C1594.89 268.43 1604.02 274.51 1611.68 274.51C1619.34 274.51 1622.06 268.43 1617.95 261.27H1618.31C1622.43 268.43 1632.14 274.51 1639.8 274.51C1647.46 274.51 1649.58 268.43 1644.78 261.27Z" fill="#FF9933"/>
<path opacity="0.8" d="M1644.78 261.27L1602.78 205.72H1311.23L1269.23 261.27C1264.43 268.43 1266.57 274.51 1274.23 274.51C1281.89 274.51 1291.6 268.43 1295.72 261.27H1296.08C1291.97 268.43 1294.69 274.51 1302.35 274.51C1310.01 274.51 1319.14 268.43 1322.57 261.27H1322.93C1319.51 268.43 1322.81 274.51 1330.47 274.51C1338.13 274.51 1346.67 268.43 1349.47 261.27H1349.83C1347.09 268.43 1350.98 274.51 1358.64 274.51C1366.3 274.51 1374.26 268.43 1376.33 261.27H1376.68C1374.63 268.43 1379.1 274.51 1386.76 274.51C1394.42 274.51 1401.76 268.43 1403.18 261.27H1403.54C1402.17 268.43 1407.22 274.51 1414.88 274.51C1422.54 274.51 1429.34 268.43 1430.03 261.27H1430.39C1429.71 268.43 1435.34 274.51 1443 274.51C1450.66 274.51 1456.88 268.43 1456.88 261.27H1457.24C1457.24 268.43 1463.46 274.51 1471.12 274.51C1478.78 274.51 1484.41 268.43 1483.73 261.27H1484C1484.69 268.43 1491.49 274.51 1499.15 274.51C1506.81 274.51 1511.86 268.43 1510.49 261.27H1510.85C1512.23 268.43 1519.61 274.51 1527.27 274.51C1534.93 274.51 1539.4 268.43 1537.35 261.27H1537.7C1539.77 268.43 1547.7 274.51 1555.39 274.51C1563.08 274.51 1566.94 268.43 1564.2 261.27H1564.56C1567.31 268.43 1575.85 274.51 1583.56 274.51C1591.27 274.51 1594.56 268.43 1591.1 261.27H1591.46C1594.89 268.43 1604.02 274.51 1611.68 274.51C1619.34 274.51 1622.06 268.43 1617.95 261.27H1618.31C1622.43 268.43 1632.14 274.51 1639.8 274.51C1647.46 274.51 1649.58 268.43 1644.78 261.27Z" fill="white"/>
<g opacity="0.2">
<path d="M1311.23 205.72H1331.8L1295.71 261.27H1269.22L1311.23 205.72Z" fill="#FF9933"/>
<path d="M1352.92 205.72H1373.49L1349.41 261.27H1322.92L1352.92 205.72Z" fill="#FF9933"/>
<path d="M1394.61 205.72H1415.17L1403.12 261.27H1376.62L1394.61 205.72Z" fill="#FF9933"/>
<path d="M1436.3 205.72H1456.86L1456.82 261.27H1430.33L1436.3 205.72Z" fill="#FF9933"/>
<path d="M1477.98 205.72H1498.55L1510.52 261.27H1484.03L1477.98 205.72Z" fill="#FF9933"/>
<path d="M1519.67 205.72H1540.24L1564.23 261.27H1537.74L1519.67 205.72Z" fill="#FF9933"/>
<path d="M1561.36 205.72H1581.92L1617.93 261.27H1591.44L1561.36 205.72Z" fill="#FF9933"/>
<path d="M1591.44 261.27C1594.87 268.43 1604 274.51 1611.66 274.51C1619.32 274.51 1622.04 268.43 1617.93 261.27" fill="#FF9933"/>
<path d="M1537.73 261.27C1539.8 268.43 1547.73 274.51 1555.42 274.51C1563.11 274.51 1566.97 268.43 1564.23 261.27" fill="#FF9933"/>
<path d="M1484 261.27C1484.69 268.43 1491.49 274.51 1499.15 274.51C1506.81 274.51 1511.86 268.43 1510.49 261.27" fill="#FF9933"/>
<path d="M1430.33 261.27C1429.65 268.43 1435.28 274.51 1442.94 274.51C1450.6 274.51 1456.82 268.43 1456.82 261.27" fill="#FF9933"/>
<path d="M1376.62 261.27C1374.57 268.43 1379.04 274.51 1386.7 274.51C1394.36 274.51 1401.7 268.43 1403.12 261.27" fill="#FF9933"/>
<path d="M1322.92 261.27C1319.5 268.43 1322.8 274.51 1330.46 274.51C1338.12 274.51 1346.66 268.43 1349.46 261.27" fill="#FF9933"/>
<path d="M1269.22 261.27C1264.42 268.43 1266.56 274.51 1274.22 274.51C1281.88 274.51 1291.59 268.43 1295.71 261.27" fill="#FF9933"/>
</g>
<path d="M1626.83 511.61L1287.17 436.43V418.89L1626.83 494.07V511.61Z" fill="#FF9933"/>
<path opacity="0.4" d="M1626.83 511.61L1287.17 436.43V418.89L1626.83 494.07V511.61Z" fill="white"/>
<g opacity="0.6">
<path d="M1341.46 448.44L1306.98 440.81L1324.31 427.11L1358.79 434.74L1341.46 448.44Z" fill="#FF9933"/>
<path d="M1403.51 462.18L1369.04 454.55L1386.37 440.85L1420.85 448.48L1403.51 462.18Z" fill="#FF9933"/>
<path d="M1465.57 475.91L1431.09 468.28L1448.43 454.58L1482.91 462.21L1465.57 475.91Z" fill="#FF9933"/>
<path d="M1527.63 489.65L1493.15 482.02L1510.48 468.32L1544.96 475.95L1527.63 489.65Z" fill="#FF9933"/>
<path d="M1589.69 503.38L1555.21 495.75L1572.54 482.05L1607.02 489.68L1589.69 503.38Z" fill="#FF9933"/>
</g>
<path d="M1626.83 347.92V365.46L1589.69 369.67L1555.21 373.58L1527.64 376.71L1502.75 379.52L1500.09 372.81L1497.24 365.64L1496.87 376.43L1496.74 380.21L1493.15 380.62L1465.57 383.74L1431.09 387.65L1403.52 390.78L1369.03 394.69L1341.45 397.81L1306.98 401.72L1287.17 403.97V386.44L1324.31 382.23L1358.79 378.31L1386.35 375.19L1410.54 372.44L1420.85 371.28L1448.43 368.15L1482.9 364.24L1510.48 361.11L1544.97 357.2L1572.55 354.07L1607.02 350.16L1626.83 347.92Z" fill="#FF9933"/>
<path opacity="0.4" d="M1626.83 347.92V365.46L1589.69 369.67L1555.21 373.58L1527.64 376.71L1502.75 379.52L1500.09 372.81L1497.24 365.64L1496.87 376.43L1496.74 380.21L1493.15 380.62L1465.57 383.74L1431.09 387.65L1403.52 390.78L1369.03 394.69L1341.45 397.81L1306.98 401.72L1287.17 403.97V386.44L1324.31 382.23L1358.79 378.31L1386.35 375.19L1410.54 372.44L1420.85 371.28L1448.43 368.15L1482.9 364.24L1510.48 361.11L1544.97 357.2L1572.55 354.07L1607.02 350.16L1626.83 347.92Z" fill="white"/>
<g opacity="0.6">
<path d="M1341.45 397.81L1306.97 401.73L1324.31 382.22L1358.79 378.31L1341.45 397.81Z" fill="#FF9933"/>
<path d="M1403.51 390.78L1369.03 394.69L1386.37 375.19L1420.85 371.28L1403.51 390.78Z" fill="#FF9933"/>
<path d="M1465.57 383.74L1431.09 387.65L1448.43 368.15L1482.91 364.24L1465.57 383.74Z" fill="#FF9933"/>
<path d="M1493.15 380.62L1496.87 376.43L1496.74 380.21L1493.15 380.62Z" fill="white"/>
<path d="M1544.97 357.2L1527.64 376.71L1502.75 379.52L1500.09 372.81L1510.48 361.11L1544.97 357.2Z" fill="#FF9933"/>
<path d="M1589.69 369.67L1555.21 373.58L1572.55 354.07L1607.03 350.16L1589.69 369.67Z" fill="#FF9933"/>
</g>
<path d="M1535.11 353.86C1537.11 349.39 1545.04 347.23 1552.29 351.81C1559.54 356.39 1558.88 366.12 1555.71 367.3C1565.13 370.48 1569.79 390.37 1561.88 391.96C1564.71 397.73 1565.67 420.05 1541.88 415.64C1518.09 411.23 1525.05 391.64 1525.05 391.64C1525.05 391.64 1518.3 375.83 1528.89 368.84C1524.38 365.06 1527.34 351.65 1535.11 353.86Z" fill="#263238"/>
<path d="M1543.24 545.83L1537.43 548.61L1525.02 531.85L1532.76 526.6L1543.24 545.83Z" fill="#FF8B7B"/>
<path d="M1536.11 547.06L1541.52 542.24C1541.61 542.161 1541.73 542.117 1541.85 542.117C1541.96 542.117 1542.08 542.161 1542.17 542.24L1546.29 545.7C1546.39 545.799 1546.47 545.919 1546.52 546.05C1546.57 546.182 1546.59 546.322 1546.58 546.463C1546.58 546.604 1546.54 546.741 1546.47 546.866C1546.41 546.992 1546.32 547.102 1546.21 547.19C1544.3 548.84 1543.3 549.54 1540.92 551.66C1539.46 552.96 1536.55 555.8 1534.53 557.6C1532.51 559.4 1530.77 557.6 1531.46 556.7C1534.57 552.58 1535.15 550.21 1535.55 548.08C1535.61 547.686 1535.81 547.326 1536.11 547.06Z" fill="#263238"/>
<path d="M1504 549.47C1503.62 549.87 1503.13 550.139 1502.59 550.24C1502.46 550.244 1502.33 550.216 1502.22 550.156C1502.1 550.097 1502 550.008 1501.93 549.9C1501.88 549.835 1501.85 549.758 1501.84 549.678C1501.83 549.597 1501.84 549.515 1501.87 549.44C1502.2 548.61 1504.92 547.82 1505.23 547.74C1505.26 547.73 1505.29 547.729 1505.32 547.738C1505.35 547.747 1505.37 547.766 1505.39 547.79C1505.41 547.815 1505.42 547.845 1505.42 547.875C1505.42 547.905 1505.41 547.935 1505.39 547.96C1504.97 548.504 1504.51 549.009 1504 549.47ZM1502.33 549.3C1502.25 549.36 1502.19 549.439 1502.15 549.53C1502.13 549.559 1502.12 549.592 1502.12 549.625C1502.12 549.658 1502.13 549.691 1502.15 549.72C1502.2 549.791 1502.26 549.849 1502.34 549.888C1502.41 549.927 1502.5 549.945 1502.58 549.94C1503.09 549.94 1503.92 549.26 1504.84 548.15C1503.94 548.396 1503.09 548.785 1502.32 549.3H1502.33Z" fill="#FF9933"/>
<path d="M1505.34 547.99C1504.55 548.26 1502.57 548.29 1502.21 547.7C1502.13 547.56 1502.09 547.33 1502.38 547.02C1502.48 546.908 1502.6 546.816 1502.74 546.751C1502.87 546.686 1503.02 546.648 1503.17 546.64C1504.02 546.745 1504.81 547.132 1505.41 547.74C1505.44 547.77 1505.45 547.809 1505.45 547.85C1505.45 547.891 1505.44 547.93 1505.41 547.96L1505.34 547.99ZM1502.6 547.18L1502.54 547.24C1502.34 547.45 1502.4 547.54 1502.42 547.57C1502.63 547.92 1504.07 548 1504.94 547.81C1504.44 547.336 1503.8 547.041 1503.12 546.97C1502.93 546.978 1502.74 547.052 1502.6 547.18Z" fill="#FF9933"/>
<path d="M1525.76 389.47C1524.91 393.377 1523.78 397.217 1522.38 400.96C1521.68 402.869 1520.87 404.735 1519.95 406.55C1519 408.488 1517.83 410.313 1516.47 411.99L1516.2 412.32L1515.74 412.8C1515.34 413.171 1514.88 413.478 1514.38 413.71C1513.31 414.195 1512.1 414.263 1510.98 413.9C1510.21 413.646 1509.5 413.253 1508.87 412.74C1508.38 412.346 1507.93 411.914 1507.51 411.45C1506.12 409.838 1504.93 408.073 1503.94 406.19C1502.09 402.662 1500.54 398.982 1499.32 395.19C1499.21 394.819 1499.23 394.419 1499.4 394.067C1499.56 393.715 1499.85 393.435 1500.2 393.28C1500.56 393.126 1500.96 393.108 1501.33 393.229C1501.7 393.351 1502.01 393.604 1502.2 393.94C1503.11 395.58 1504.05 397.26 1505.02 398.88C1505.99 400.5 1506.96 402.11 1508.02 403.61C1508.96 405.074 1510.06 406.432 1511.3 407.66C1511.55 407.891 1511.81 408.101 1512.09 408.29C1512.33 408.44 1512.54 408.51 1512.53 408.47C1512.34 408.402 1512.14 408.402 1511.95 408.47L1511.77 408.56C1511.77 408.56 1511.77 408.56 1511.77 408.5L1511.94 408.27C1512.93 406.88 1513.76 405.388 1514.43 403.82C1515.14 402.17 1515.8 400.46 1516.43 398.71C1517.61 395.23 1518.64 391.54 1519.51 388V387.92C1519.73 387.133 1520.25 386.461 1520.95 386.044C1521.65 385.627 1522.49 385.498 1523.29 385.682C1524.08 385.866 1524.78 386.349 1525.23 387.033C1525.68 387.716 1525.85 388.546 1525.7 389.35L1525.76 389.47Z" fill="#FF8B7B"/>
<path d="M1553.24 556.89L1547.01 557.11L1540.44 534.98L1549.03 533.94L1553.24 556.89Z" fill="#FF8B7B"/>
<path d="M1515.59 555.12H1522.59C1522.71 555.115 1522.82 555.155 1522.91 555.234C1523 555.313 1523.05 555.422 1523.06 555.54L1523.48 561.05C1523.48 561.193 1523.46 561.335 1523.4 561.469C1523.35 561.602 1523.27 561.724 1523.17 561.827C1523.08 561.93 1522.96 562.012 1522.83 562.069C1522.69 562.127 1522.55 562.157 1522.41 562.16C1519.98 562.16 1518.81 562.01 1515.74 562.03C1513.85 562.03 1511.08 562.26 1508.47 562.28C1505.86 562.3 1505.89 559.72 1507 559.47C1511.94 558.39 1512.81 556.94 1514.54 555.55C1514.83 555.296 1515.2 555.145 1515.59 555.12Z" fill="#263238"/>
<path d="M1519.88 386.74C1519 390.85 1518 400.13 1518 421.06L1543 423.27C1544.15 413.82 1545.1 407.73 1551.69 390.79C1551.92 390.19 1552.03 389.547 1551.99 388.904C1551.95 388.261 1551.78 387.633 1551.48 387.064C1551.18 386.494 1550.76 385.996 1550.25 385.604C1549.74 385.212 1549.15 384.934 1548.52 384.79C1546.91 384.42 1545.05 384.04 1543.16 383.79C1539.41 383.187 1535.62 382.853 1531.82 382.79C1529.05 382.79 1526.05 383.01 1523.94 383.19C1522.97 383.257 1522.05 383.641 1521.31 384.282C1520.58 384.923 1520.08 385.786 1519.88 386.74Z" fill="#FF9933"/>
<path opacity="0.2" d="M1546.56 389.87C1546.45 392.87 1547.08 397.44 1548.45 399.37C1548.89 398.12 1549.36 396.8 1549.88 395.37L1546.56 389.87Z" fill="black"/>
<path d="M1544.07 370.86C1542.76 374.47 1540.95 381.14 1543.07 383.81C1539.03 386.363 1534.79 388.574 1530.38 390.42C1527.78 384.33 1531.73 382.81 1531.73 382.81C1535.96 382.19 1536.35 379.14 1536.11 376.23L1544.07 370.86Z" fill="#FF8B7B"/>
<path opacity="0.2" d="M1541.8 373.6L1536.14 376.22C1536.2 376.905 1536.2 377.595 1536.14 378.28C1537.32 378.39 1540.38 377.49 1541.54 375.59C1541.87 374.98 1541.96 374.273 1541.8 373.6Z" fill="black"/>
<path d="M1549.29 365.16C1547.24 370.97 1546.5 373.48 1542.64 375.66C1536.84 378.95 1530.15 375.16 1530.42 368.85C1530.66 363.17 1533.98 354.61 1540.42 353.91C1541.85 353.744 1543.29 353.945 1544.62 354.496C1545.95 355.047 1547.11 355.928 1548 357.056C1548.89 358.184 1549.47 359.521 1549.7 360.94C1549.93 362.359 1549.78 363.811 1549.29 365.16Z" fill="#FF8B7B"/>
<path d="M1537.82 353.86C1538.52 357.37 1542.99 359.45 1545.82 359.09C1544.49 360.75 1543.02 367.8 1548.21 368.79C1553.9 366.28 1554.46 359.7 1551.32 355.31C1548.18 350.92 1539.57 350.76 1537.82 353.86Z" fill="#263238"/>
<path d="M1537.82 353.06C1533.41 354.06 1532.91 357.87 1535.31 357.68C1539.45 357.32 1543.58 351.69 1537.82 353.06Z" fill="#263238"/>
<path d="M1518 421.06C1518 421.06 1504.82 476.86 1506 490.95C1507.35 507.42 1525.37 533.95 1525.37 533.95L1533.64 526.44C1533.64 526.44 1525.42 504.69 1519.35 490.53C1521.3 476.36 1538.5 436.33 1538.5 422.85L1518 421.06Z" fill="#FF9933"/>
<path opacity="0.4" d="M1518 421.06C1518 421.06 1504.82 476.86 1506 490.95C1507.35 507.42 1525.37 533.95 1525.37 533.95L1533.64 526.44C1533.64 526.44 1525.42 504.69 1519.35 490.53C1521.3 476.36 1538.5 436.33 1538.5 422.85L1518 421.06Z" fill="black"/>
<path d="M1535.1 527.61L1525.33 534.9L1522.82 533L1533.55 524.53L1535.1 527.61Z" fill="#FF9933"/>
<path opacity="0.4" d="M1527.72 445.64C1520.46 455.69 1520.1 474.18 1520.56 484.57C1523.05 475.03 1528.27 460.77 1532.43 447.93C1532.34 443 1531.11 440.93 1527.72 445.64Z" fill="black"/>
<path d="M1522.65 421.14C1522.65 421.14 1526.28 468.31 1527.9 484.57C1529.81 503.88 1539.9 535.57 1539.9 535.57L1549.07 533.95C1549.07 533.95 1544 508.21 1542.48 490.95C1542.76 467.95 1547.34 437.79 1542.98 423.34L1522.65 421.14Z" fill="#FF9933"/>
<path opacity="0.4" d="M1522.65 421.14C1522.65 421.14 1526.28 468.31 1527.9 484.57C1529.81 503.88 1539.9 535.57 1539.9 535.57L1549.07 533.95C1549.07 533.95 1544 508.21 1542.48 490.95C1542.76 467.95 1547.34 437.79 1542.98 423.34L1522.65 421.14Z" fill="black"/>
<path d="M1549.95 535.54L1539.34 536.66L1538.15 533.44L1550.06 531.49L1549.95 535.54Z" fill="#FF9933"/>
<path d="M1538.94 363.81C1538.81 364.29 1538.44 364.61 1538.13 364.52C1537.82 364.43 1537.67 363.97 1537.8 363.52C1537.93 363.07 1538.31 362.72 1538.62 362.81C1538.93 362.9 1539.08 363.33 1538.94 363.81Z" fill="#263238"/>
<path d="M1533.5 362.26C1533.36 362.74 1532.99 363.06 1532.68 362.97C1532.37 362.88 1532.22 362.41 1532.36 361.97C1532.5 361.53 1532.86 361.17 1533.17 361.26C1533.48 361.35 1533.63 361.77 1533.5 362.26Z" fill="#263238"/>
<path d="M1533.31 361.29L1532.24 360.62C1532.24 360.62 1532.58 361.7 1533.31 361.29Z" fill="#263238"/>
<path d="M1535.22 363.9C1534.48 364.876 1533.61 365.747 1532.63 366.49C1532.82 366.735 1533.07 366.934 1533.35 367.074C1533.63 367.214 1533.94 367.291 1534.25 367.3L1535.22 363.9Z" fill="#FF5652"/>
<path d="M1536.61 369.88C1536.33 369.848 1536.05 369.795 1535.78 369.72C1535.74 369.707 1535.72 369.681 1535.7 369.648C1535.68 369.615 1535.67 369.577 1535.68 369.54C1535.69 369.501 1535.72 369.468 1535.75 369.447C1535.79 369.427 1535.83 369.421 1535.87 369.43C1536.46 369.617 1537.09 369.66 1537.71 369.555C1538.32 369.451 1538.9 369.202 1539.4 368.83C1539.43 368.809 1539.47 368.8 1539.5 368.804C1539.54 368.809 1539.57 368.826 1539.6 368.853C1539.62 368.879 1539.63 368.914 1539.64 368.951C1539.64 368.987 1539.62 369.022 1539.6 369.05C1538.75 369.705 1537.68 370.003 1536.61 369.88Z" fill="#263238"/>
<path d="M1549.78 371.06C1548.9 371.864 1547.74 372.288 1546.55 372.24C1544.97 372.17 1544.61 371.1 1545.46 369.87C1546.31 368.64 1547.77 367.38 1549.46 367.68C1550.93 367.98 1550.85 370.06 1549.78 371.06Z" fill="#FF8B7B"/>
<path d="M1542.8 362.52C1542.76 362.511 1542.73 362.493 1542.7 362.469C1542.66 362.445 1542.64 362.415 1542.62 362.38C1542.44 362.057 1542.19 361.781 1541.88 361.574C1541.58 361.367 1541.23 361.235 1540.86 361.19C1540.82 361.189 1540.78 361.18 1540.75 361.163C1540.71 361.147 1540.68 361.124 1540.65 361.095C1540.62 361.066 1540.6 361.033 1540.59 360.996C1540.58 360.959 1540.57 360.919 1540.57 360.88C1540.58 360.803 1540.61 360.732 1540.67 360.68C1540.73 360.628 1540.8 360.6 1540.88 360.6C1541.34 360.65 1541.79 360.811 1542.18 361.068C1542.57 361.326 1542.89 361.673 1543.12 362.08C1543.16 362.148 1543.17 362.229 1543.15 362.305C1543.13 362.381 1543.09 362.447 1543.02 362.49C1542.99 362.509 1542.95 362.522 1542.91 362.527C1542.88 362.532 1542.84 362.53 1542.8 362.52Z" fill="#263238"/>
<path d="M1532.45 359.72C1532.39 359.712 1532.34 359.688 1532.3 359.651C1532.25 359.614 1532.22 359.566 1532.2 359.511C1532.19 359.456 1532.19 359.398 1532.2 359.343C1532.22 359.288 1532.25 359.238 1532.29 359.2C1532.64 358.893 1533.06 358.672 1533.52 358.555C1533.97 358.439 1534.44 358.43 1534.9 358.53C1534.97 358.555 1535.03 358.608 1535.07 358.677C1535.1 358.746 1535.11 358.826 1535.09 358.9C1535.08 358.937 1535.06 358.971 1535.04 359.001C1535.01 359.031 1534.99 359.056 1534.95 359.075C1534.92 359.094 1534.88 359.105 1534.84 359.11C1534.81 359.114 1534.77 359.111 1534.73 359.1C1534.37 359.02 1533.99 359.029 1533.64 359.124C1533.28 359.22 1532.95 359.4 1532.68 359.65C1532.65 359.677 1532.61 359.698 1532.57 359.71C1532.53 359.722 1532.49 359.725 1532.45 359.72Z" fill="#263238"/>
<path d="M1552.17 388.2C1553.38 391.74 1554.4 395.2 1555.26 398.86C1555.69 400.67 1556.1 402.5 1556.39 404.38C1556.73 406.362 1556.89 408.369 1556.88 410.38C1556.86 410.966 1556.81 411.551 1556.72 412.13C1556.66 412.468 1556.58 412.802 1556.48 413.13C1556.42 413.33 1556.37 413.49 1556.29 413.7C1555.95 414.585 1555.32 415.335 1554.52 415.84C1554.05 416.115 1553.55 416.314 1553.02 416.43C1552.28 416.582 1551.51 416.603 1550.76 416.49C1548.69 416.119 1546.69 415.403 1544.86 414.37C1541.57 412.593 1538.45 410.507 1535.55 408.14C1535.24 407.899 1535.02 407.548 1534.96 407.159C1534.89 406.769 1534.97 406.368 1535.18 406.035C1535.4 405.702 1535.73 405.461 1536.11 405.36C1536.49 405.259 1536.9 405.306 1537.25 405.49C1540.37 407.106 1543.57 408.561 1546.84 409.85C1547.64 410.15 1548.43 410.42 1549.19 410.63C1549.86 410.831 1550.55 410.955 1551.25 411C1551.4 411.02 1551.54 411.003 1551.68 410.95C1551.68 410.95 1551.58 410.95 1551.44 411.04C1551.28 411.134 1551.14 411.264 1551.03 411.42C1550.98 411.481 1550.95 411.548 1550.92 411.62C1550.92 411.62 1550.92 411.56 1550.92 411.53C1550.95 411.432 1550.96 411.332 1550.97 411.23C1550.99 410.914 1550.99 410.596 1550.97 410.28C1550.88 408.661 1550.65 407.052 1550.29 405.47C1549.92 403.79 1549.54 402.09 1549.08 400.39C1548.17 397.01 1547.14 393.56 1546.08 390.23C1545.91 389.463 1546.03 388.661 1546.42 387.978C1546.81 387.295 1547.44 386.78 1548.18 386.531C1548.93 386.283 1549.74 386.319 1550.46 386.633C1551.18 386.946 1551.75 387.515 1552.08 388.23L1552.17 388.2Z" fill="#FF8B7B"/>
<path d="M1512.16 555.84C1512.08 555.74 1512.03 555.623 1512.01 555.5C1511.99 555.377 1512 555.25 1512.03 555.13C1512.04 555.039 1512.08 554.953 1512.14 554.88C1512.19 554.807 1512.27 554.748 1512.35 554.71C1513.1 554.38 1514.9 555.59 1515.11 555.71C1515.13 555.727 1515.15 555.75 1515.16 555.777C1515.17 555.804 1515.17 555.833 1515.16 555.86C1515.15 555.89 1515.14 555.917 1515.12 555.939C1515.1 555.96 1515.07 555.974 1515.04 555.98C1514.22 556.18 1512.77 556.43 1512.22 555.9L1512.16 555.84ZM1514.64 555.78C1513.9 555.32 1512.85 554.78 1512.46 554.98C1512.42 554.996 1512.39 555.022 1512.36 555.056C1512.34 555.089 1512.32 555.129 1512.32 555.17C1512.29 555.259 1512.29 555.355 1512.31 555.447C1512.33 555.539 1512.37 555.623 1512.44 555.69C1512.73 555.98 1513.54 556.06 1514.64 555.78Z" fill="#FF9933"/>
<path d="M1514.2 555.29C1513.76 554.841 1513.51 554.238 1513.51 553.61C1513.55 553.495 1513.61 553.394 1513.71 553.321C1513.8 553.247 1513.92 553.205 1514.04 553.2C1514.15 553.183 1514.26 553.191 1514.37 553.224C1514.47 553.257 1514.57 553.314 1514.65 553.39C1515.28 553.98 1515.17 555.77 1515.16 555.85C1515.16 555.876 1515.15 555.901 1515.14 555.922C1515.12 555.943 1515.1 555.96 1515.08 555.97C1515.06 555.982 1515.03 555.989 1515.01 555.989C1514.99 555.989 1514.96 555.982 1514.94 555.97C1514.66 555.78 1514.41 555.551 1514.2 555.29ZM1514.5 553.68L1514.44 553.61C1514.39 553.561 1514.33 553.525 1514.26 553.504C1514.19 553.484 1514.12 553.479 1514.05 553.49C1513.86 553.49 1513.82 553.6 1513.8 553.67C1513.69 554.09 1514.32 555.1 1514.88 555.56C1514.93 554.91 1514.8 554.259 1514.5 553.68Z" fill="#FF9933"/>
<path d="M1543.55 421.86L1543.83 424.16C1543.88 424.35 1543.65 424.51 1543.36 424.48L1517.66 422.21C1517.44 422.21 1517.27 422.06 1517.28 421.92L1517.42 419.65C1517.42 419.49 1517.64 419.37 1517.89 419.4L1543.18 421.63C1543.36 421.65 1543.52 421.74 1543.55 421.86Z" fill="white"/>
<path d="M1539.69 424.4L1540.37 424.46C1540.51 424.46 1540.62 424.46 1540.62 424.33L1540.78 421.38C1540.78 421.29 1540.68 421.21 1540.55 421.2L1539.87 421.14C1539.73 421.14 1539.62 421.19 1539.61 421.27L1539.46 424.27C1539.45 424.31 1539.56 424.39 1539.69 424.4Z" fill="#FF9933"/>
<path opacity="0.4" d="M1539.69 424.4L1540.37 424.46C1540.51 424.46 1540.62 424.46 1540.62 424.33L1540.78 421.38C1540.78 421.29 1540.68 421.21 1540.55 421.2L1539.87 421.14C1539.73 421.14 1539.62 421.19 1539.61 421.27L1539.46 424.27C1539.45 424.31 1539.56 424.39 1539.69 424.4Z" fill="black"/>
<path d="M1519.52 422.62L1520.2 422.68C1520.34 422.68 1520.45 422.63 1520.46 422.54L1520.61 419.54C1520.61 419.46 1520.51 419.38 1520.38 419.36L1519.7 419.3C1519.56 419.3 1519.45 419.3 1519.45 419.44L1519.29 422.39C1519.28 422.53 1519.39 422.61 1519.52 422.62Z" fill="#FF9933"/>
<path opacity="0.4" d="M1519.52 422.62L1520.2 422.68C1520.34 422.68 1520.45 422.63 1520.46 422.54L1520.61 419.54C1520.61 419.46 1520.51 419.38 1520.38 419.36L1519.7 419.3C1519.56 419.3 1519.45 419.3 1519.45 419.44L1519.29 422.39C1519.28 422.53 1519.39 422.61 1519.52 422.62Z" fill="black"/>
<path d="M1529.61 423.51L1530.29 423.57C1530.42 423.57 1530.54 423.52 1530.54 423.44L1530.7 420.44C1530.7 420.36 1530.6 420.28 1530.46 420.27L1529.78 420.21C1529.65 420.21 1529.53 420.21 1529.53 420.34L1529.37 423.29C1529.37 423.42 1529.47 423.5 1529.61 423.51Z" fill="#FF9933"/>
<path opacity="0.4" d="M1529.61 423.51L1530.29 423.57C1530.42 423.57 1530.54 423.52 1530.54 423.44L1530.7 420.44C1530.7 420.36 1530.6 420.28 1530.46 420.27L1529.78 420.21C1529.65 420.21 1529.53 420.21 1529.53 420.34L1529.37 423.29C1529.37 423.42 1529.47 423.5 1529.61 423.51Z" fill="black"/>
<path d="M1500.54 391.06L1498.54 388.16C1498.31 387.819 1497.97 387.565 1497.58 387.44C1497.19 387.315 1496.77 387.325 1496.38 387.47L1494.46 388.19C1494.23 388.275 1494.02 388.405 1493.85 388.572C1493.67 388.739 1493.53 388.94 1493.43 389.162C1493.33 389.385 1493.28 389.625 1493.27 389.868C1493.27 390.112 1493.31 390.354 1493.4 390.58L1494.2 392.58C1494.46 393.237 1494.95 393.779 1495.58 394.11L1500.33 396.61L1502.85 396.09C1503.49 393.5 1500.54 391.06 1500.54 391.06Z" fill="#FF8B7B"/>
<path d="M1503 395.41C1503.27 393.713 1503.04 391.972 1502.32 390.41C1502.14 389.85 1501.71 387.93 1501.38 387.82C1500.6 387.55 1500.38 388.9 1500.56 389.72C1500.61 389.96 1500.57 390.21 1500.45 390.426C1500.34 390.641 1500.15 390.809 1499.92 390.9C1499.92 390.9 1501.7 395.26 1503 395.41Z" fill="#FF8B7B"/>
<path d="M1495.88 388.2C1496.02 388.23 1496.14 388.289 1496.26 388.371C1496.37 388.454 1496.46 388.559 1496.53 388.68L1499.45 373.89C1500.19 376.835 1500.28 379.905 1499.73 382.89L1498 384.06L1496.74 390.45C1496.52 391.55 1495.74 392.33 1495.05 392.18C1494.36 392.03 1493.93 391.04 1494.15 389.94C1494.37 388.84 1495.16 388.06 1495.88 388.2ZM1495.2 391.63C1495.71 391.73 1496.26 391.17 1496.42 390.38C1496.58 389.59 1496.28 388.86 1495.77 388.76C1495.26 388.66 1494.71 389.21 1494.55 390.01C1494.39 390.81 1494.68 391.53 1495.2 391.63Z" fill="#263238"/>
<path d="M1499.94 386.89C1499.71 387.059 1499.56 387.31 1499.52 387.59L1491.13 375.06C1491.59 378.073 1492.69 380.953 1494.36 383.5L1496.36 383.9L1499.98 389.3C1500.61 390.23 1501.6 390.66 1502.21 390.3C1502.82 389.94 1502.79 388.81 1502.21 387.88C1501.63 386.95 1500.55 386.48 1499.94 386.89ZM1501.89 389.8C1501.46 390.09 1500.73 389.8 1500.29 389.11C1499.85 388.42 1499.83 387.66 1500.29 387.36C1500.75 387.06 1501.44 387.36 1501.89 388.05C1502.34 388.74 1502.33 389.5 1501.89 389.8Z" fill="#263238"/>
<path d="M1538.75 362.84L1537.69 362.18C1537.69 362.18 1538 363.25 1538.75 362.84Z" fill="#263238"/>
<path d="M1539.14 406.78L1536.91 401.97C1536.59 401.282 1536.04 400.732 1535.35 400.42L1533.45 399.54C1533.23 399.437 1532.99 399.38 1532.74 399.372C1532.5 399.364 1532.25 399.405 1532.03 399.492C1531.8 399.58 1531.59 399.713 1531.41 399.882C1531.24 400.052 1531.1 400.255 1531 400.48L1530.19 402.36C1530.03 402.736 1529.99 403.156 1530.1 403.554C1530.2 403.951 1530.43 404.302 1530.76 404.55L1533.56 406.65C1533.56 406.65 1535.87 409.72 1538.48 409.26L1539.14 406.78Z" fill="#FF8B7B"/>
<path d="M1356.44 449.86H1407.39C1409.13 449.89 1410.79 450.557 1412.07 451.733C1413.34 452.909 1414.15 454.512 1414.32 456.24L1422.66 551.56C1422.75 552.372 1422.67 553.194 1422.41 553.971C1422.16 554.748 1421.74 555.462 1421.19 556.066C1420.64 556.67 1419.97 557.149 1419.22 557.472C1418.47 557.795 1417.66 557.955 1416.84 557.94H1365.9C1364.17 557.898 1362.52 557.227 1361.25 556.052C1359.98 554.878 1359.18 553.281 1359 551.56L1350.66 456.24C1350.57 455.431 1350.65 454.613 1350.9 453.838C1351.16 453.064 1351.57 452.352 1352.11 451.749C1352.66 451.146 1353.33 450.666 1354.07 450.34C1354.82 450.014 1355.63 449.851 1356.44 449.86Z" fill="#263238"/>
<path d="M1413.55 531.47H1419.55C1419.92 531.475 1420.28 531.617 1420.55 531.867C1420.83 532.118 1421 532.46 1421.04 532.83L1423.94 566.07C1423.96 566.243 1423.94 566.419 1423.89 566.585C1423.84 566.751 1423.75 566.903 1423.63 567.032C1423.51 567.161 1423.37 567.263 1423.21 567.332C1423.05 567.401 1422.87 567.434 1422.7 567.43H1416.7C1416.33 567.427 1415.97 567.286 1415.7 567.035C1415.43 566.783 1415.25 566.44 1415.22 566.07L1412.31 532.83C1412.29 532.657 1412.31 532.481 1412.36 532.315C1412.41 532.149 1412.5 531.997 1412.62 531.868C1412.74 531.739 1412.88 531.637 1413.04 531.568C1413.2 531.499 1413.38 531.466 1413.55 531.47Z" fill="#263238"/>
<path d="M1358.6 531.47H1364.6C1364.97 531.478 1365.32 531.62 1365.6 531.87C1365.87 532.121 1366.04 532.462 1366.08 532.83L1369 566.06C1369.02 566.234 1369 566.41 1368.95 566.576C1368.89 566.742 1368.8 566.894 1368.68 567.023C1368.56 567.151 1368.42 567.253 1368.26 567.322C1368.1 567.39 1367.92 567.424 1367.75 567.42H1361.75C1361.38 567.414 1361.02 567.273 1360.75 567.022C1360.48 566.771 1360.31 566.429 1360.27 566.06L1357.36 532.82C1357.34 532.648 1357.36 532.474 1357.42 532.31C1357.47 532.146 1357.56 531.995 1357.68 531.868C1357.8 531.74 1357.94 531.639 1358.1 531.571C1358.26 531.502 1358.43 531.468 1358.6 531.47Z" fill="#263238"/>
<path d="M1404.06 449.86H1353.12C1351.38 449.89 1349.72 450.556 1348.44 451.732C1347.16 452.908 1346.36 454.512 1346.18 456.24L1337.84 551.56C1337.75 552.372 1337.83 553.194 1338.09 553.971C1338.34 554.748 1338.76 555.462 1339.31 556.066C1339.86 556.67 1340.53 557.149 1341.28 557.472C1342.03 557.795 1342.84 557.955 1343.66 557.94H1394.6C1396.34 557.91 1398 557.244 1399.28 556.068C1400.56 554.892 1401.36 553.288 1401.54 551.56L1409.88 456.24C1409.97 455.428 1409.89 454.606 1409.63 453.829C1409.38 453.052 1408.96 452.338 1408.41 451.734C1407.86 451.13 1407.19 450.651 1406.44 450.328C1405.69 450.005 1404.88 449.845 1404.06 449.86Z" fill="#FF9933"/>
<path d="M1347 531.47H1341C1340.63 531.476 1340.27 531.617 1340 531.868C1339.73 532.119 1339.56 532.461 1339.52 532.83L1336.57 566.06C1336.55 566.233 1336.57 566.409 1336.62 566.575C1336.67 566.741 1336.76 566.893 1336.88 567.022C1337 567.151 1337.14 567.253 1337.3 567.322C1337.46 567.391 1337.64 567.424 1337.81 567.42H1343.81C1344.18 567.414 1344.54 567.273 1344.81 567.022C1345.08 566.771 1345.25 566.429 1345.29 566.06L1348.19 532.82C1348.21 532.652 1348.19 532.481 1348.14 532.32C1348.09 532.159 1348 532.01 1347.89 531.883C1347.78 531.756 1347.64 531.654 1347.49 531.583C1347.34 531.512 1347.17 531.473 1347 531.47Z" fill="#FF9933"/>
<path d="M1401.91 531.47H1395.91C1395.54 531.475 1395.18 531.617 1394.91 531.867C1394.63 532.118 1394.46 532.46 1394.42 532.83L1391.53 566.06C1391.51 566.233 1391.53 566.409 1391.58 566.575C1391.63 566.741 1391.72 566.893 1391.84 567.022C1391.96 567.151 1392.1 567.253 1392.26 567.322C1392.42 567.391 1392.6 567.424 1392.77 567.42H1398.77C1399.14 567.417 1399.5 567.276 1399.77 567.025C1400.04 566.773 1400.22 566.43 1400.25 566.06L1403.16 532.82C1403.18 532.647 1403.16 532.471 1403.11 532.306C1403.05 532.14 1402.96 531.989 1402.84 531.861C1402.72 531.733 1402.58 531.632 1402.42 531.564C1402.26 531.497 1402.08 531.465 1401.91 531.47Z" fill="#FF9933"/>
<path d="M1343.89 555.38C1343.4 555.389 1342.92 555.293 1342.47 555.099C1342.02 554.906 1341.61 554.619 1341.28 554.258C1340.95 553.896 1340.7 553.469 1340.55 553.004C1340.4 552.539 1340.35 552.047 1340.4 551.56L1348.74 456.24C1348.84 455.206 1349.33 454.246 1350.09 453.542C1350.85 452.838 1351.85 452.439 1352.89 452.42H1403.83C1404.32 452.41 1404.81 452.504 1405.26 452.697C1405.71 452.89 1406.11 453.177 1406.44 453.539C1406.77 453.901 1407.02 454.329 1407.17 454.794C1407.32 455.26 1407.37 455.753 1407.32 456.24L1399 551.56C1398.89 552.593 1398.41 553.552 1397.65 554.255C1396.88 554.959 1395.89 555.359 1394.85 555.38H1343.89Z" fill="white"/>
<path d="M1352.71 477.06L1355.99 476.86C1355.99 477.286 1356.1 477.703 1356.32 478.07C1356.48 478.296 1356.7 478.476 1356.96 478.593C1357.21 478.711 1357.49 478.761 1357.77 478.74C1358.18 478.761 1358.59 478.641 1358.93 478.4C1359.06 478.307 1359.17 478.187 1359.25 478.049C1359.33 477.912 1359.38 477.759 1359.4 477.6C1359.41 477.456 1359.39 477.312 1359.33 477.179C1359.28 477.045 1359.2 476.926 1359.09 476.83C1358.58 476.483 1358 476.26 1357.39 476.18C1356.26 476.004 1355.19 475.543 1354.29 474.84C1354 474.569 1353.78 474.234 1353.65 473.863C1353.51 473.491 1353.46 473.093 1353.51 472.7C1353.57 472.11 1353.79 471.549 1354.15 471.08C1354.56 470.545 1355.11 470.134 1355.74 469.89C1356.63 469.565 1357.57 469.415 1358.51 469.45C1359.62 469.367 1360.74 469.644 1361.68 470.24C1362.05 470.546 1362.34 470.933 1362.53 471.37C1362.72 471.807 1362.81 472.283 1362.79 472.76L1359.54 472.95C1359.54 472.543 1359.38 472.153 1359.1 471.86C1358.78 471.613 1358.39 471.492 1357.99 471.52C1357.66 471.498 1357.33 471.586 1357.06 471.77C1356.96 471.842 1356.88 471.935 1356.82 472.042C1356.76 472.149 1356.72 472.268 1356.71 472.39C1356.7 472.48 1356.72 472.57 1356.75 472.652C1356.79 472.734 1356.85 472.806 1356.92 472.86C1357.25 473.081 1357.63 473.221 1358.03 473.27C1359.11 473.472 1360.16 473.808 1361.16 474.27C1361.71 474.537 1362.17 474.966 1362.47 475.5C1362.72 476.007 1362.83 476.576 1362.77 477.14C1362.71 477.865 1362.45 478.559 1362.01 479.14C1361.55 479.744 1360.94 480.214 1360.24 480.5C1359.38 480.834 1358.46 480.994 1357.53 480.97C1355.64 480.97 1354.37 480.61 1353.7 479.88C1353.02 479.103 1352.66 478.093 1352.71 477.06Z" fill="#FF9933"/>
<path d="M1365.16 469.65H1368.59L1368.25 473.53H1372L1372.34 469.65H1375.79L1374.79 480.74H1371.34L1371.74 476.25H1368L1367.61 480.74H1364.18L1365.16 469.65Z" fill="#FF9933"/>
<path d="M1377.14 475.2C1377.15 474.407 1377.31 473.623 1377.64 472.898C1377.96 472.172 1378.42 471.52 1379.01 470.982C1379.59 470.444 1380.28 470.032 1381.03 469.77C1381.77 469.508 1382.57 469.403 1383.36 469.46C1384.12 469.401 1384.88 469.504 1385.59 469.761C1386.3 470.017 1386.95 470.423 1387.5 470.95C1387.97 471.522 1388.32 472.19 1388.52 472.907C1388.71 473.625 1388.75 474.376 1388.63 475.11C1388.57 476.231 1388.25 477.324 1387.7 478.3C1387.2 479.118 1386.49 479.788 1385.64 480.24C1384.67 480.725 1383.59 480.961 1382.5 480.93C1381.45 480.971 1380.4 480.765 1379.44 480.33C1378.64 479.915 1378 479.252 1377.62 478.44C1377.16 477.428 1376.99 476.304 1377.14 475.2ZM1380.56 475.2C1380.4 476.027 1380.55 476.881 1380.97 477.61C1381.16 477.855 1381.41 478.049 1381.7 478.176C1381.99 478.303 1382.3 478.359 1382.61 478.34C1382.94 478.353 1383.27 478.296 1383.57 478.173C1383.88 478.051 1384.15 477.866 1384.38 477.63C1384.92 476.879 1385.21 475.976 1385.21 475.05C1385.36 474.26 1385.2 473.443 1384.78 472.76C1384.58 472.519 1384.33 472.329 1384.04 472.204C1383.75 472.079 1383.44 472.023 1383.13 472.04C1382.81 472.031 1382.48 472.092 1382.19 472.218C1381.89 472.344 1381.62 472.532 1381.4 472.77C1380.86 473.471 1380.56 474.333 1380.56 475.22V475.2Z" fill="#FF9933"/>
<path d="M1390.94 469.65H1396.64C1397.13 469.608 1397.62 469.664 1398.08 469.815C1398.55 469.967 1398.98 470.21 1399.35 470.53C1399.64 470.873 1399.86 471.277 1399.98 471.712C1400.1 472.148 1400.12 472.604 1400.05 473.05C1400.03 473.549 1399.91 474.039 1399.7 474.491C1399.48 474.943 1399.18 475.347 1398.81 475.68C1397.91 476.366 1396.78 476.7 1395.65 476.62H1393.77L1393.41 480.74H1390L1390.94 469.65ZM1393.94 474.38H1394.78C1395.28 474.422 1395.78 474.299 1396.2 474.03C1396.34 473.926 1396.45 473.794 1396.54 473.642C1396.62 473.49 1396.67 473.322 1396.68 473.15C1396.7 472.993 1396.69 472.833 1396.64 472.681C1396.59 472.53 1396.51 472.39 1396.41 472.27C1396.23 472.125 1396.03 472.018 1395.81 471.954C1395.59 471.891 1395.36 471.872 1395.13 471.9H1394.13L1393.94 474.38Z" fill="#FF9933"/>
<path d="M1351 491.69L1351.67 484.01H1355.67C1356.23 483.987 1356.8 484.051 1357.34 484.2C1357.71 484.317 1358.02 484.566 1358.22 484.9C1358.43 485.277 1358.52 485.712 1358.46 486.14C1358.44 486.534 1358.31 486.914 1358.09 487.24C1357.88 487.552 1357.6 487.812 1357.28 488C1357.01 488.14 1356.72 488.24 1356.42 488.3C1356.63 488.367 1356.83 488.461 1357.01 488.58C1357.14 488.703 1357.26 488.841 1357.36 488.99C1357.47 489.142 1357.57 489.302 1357.65 489.47L1358.6 491.69H1355.92L1354.85 489.34C1354.77 489.119 1354.64 488.918 1354.48 488.75C1354.32 488.628 1354.11 488.565 1353.91 488.57H1353.7L1353.43 491.69H1351ZM1353.79 487.12H1354.79C1355.01 487.106 1355.22 487.073 1355.43 487.02C1355.59 486.99 1355.73 486.905 1355.83 486.78C1355.94 486.655 1356.01 486.497 1356.02 486.33C1356.04 486.228 1356.03 486.122 1356 486.023C1355.97 485.924 1355.91 485.834 1355.84 485.76C1355.58 485.599 1355.27 485.528 1354.97 485.56H1353.97L1353.79 487.12Z" fill="#FF9933"/>
<path d="M1360 484.06H1366.36L1366.22 485.7H1362.22L1362.11 486.92H1365.81L1365.67 488.49H1362L1361.87 490H1365.97L1365.82 491.74H1359.3L1360 484.06Z" fill="#FF9933"/>
<path d="M1367.09 487.86C1367.09 487.307 1367.2 486.759 1367.42 486.252C1367.64 485.744 1367.97 485.288 1368.37 484.912C1368.78 484.536 1369.26 484.249 1369.78 484.067C1370.3 483.886 1370.86 483.816 1371.41 483.86C1371.93 483.814 1372.46 483.879 1372.95 484.052C1373.45 484.224 1373.9 484.5 1374.28 484.86C1374.61 485.256 1374.85 485.719 1374.98 486.215C1375.12 486.712 1375.14 487.232 1375.06 487.74C1375.02 488.516 1374.8 489.272 1374.42 489.95C1374.08 490.52 1373.58 490.984 1372.99 491.29C1372.31 491.627 1371.57 491.792 1370.81 491.77C1370.08 491.801 1369.35 491.661 1368.69 491.36C1368.14 491.072 1367.7 490.612 1367.43 490.05C1367.12 489.364 1367 488.607 1367.09 487.86ZM1369.47 487.86C1369.36 488.432 1369.46 489.025 1369.75 489.53C1369.88 489.701 1370.06 489.836 1370.26 489.925C1370.46 490.014 1370.67 490.053 1370.89 490.04C1371.12 490.049 1371.34 490.01 1371.55 489.923C1371.77 489.837 1371.95 489.706 1372.11 489.54C1372.49 489.021 1372.69 488.393 1372.69 487.75C1372.79 487.204 1372.68 486.642 1372.39 486.17C1372.26 485.999 1372.08 485.864 1371.88 485.775C1371.68 485.686 1371.47 485.647 1371.25 485.66C1371.03 485.655 1370.8 485.697 1370.59 485.785C1370.39 485.873 1370.2 486.004 1370.05 486.17C1369.68 486.658 1369.47 487.255 1369.47 487.87V487.86Z" fill="#FF9933"/>
<path d="M1376.66 484.06H1380.66C1381 484.029 1381.34 484.066 1381.66 484.171C1381.99 484.276 1382.28 484.446 1382.54 484.67C1382.74 484.909 1382.89 485.189 1382.98 485.491C1383.06 485.793 1383.08 486.11 1383.03 486.42C1382.99 487.116 1382.69 487.771 1382.17 488.24C1381.54 488.71 1380.76 488.94 1379.98 488.89H1378.68L1378.43 491.74H1376L1376.66 484.06ZM1378.76 487.33H1379.34C1379.69 487.359 1380.04 487.279 1380.34 487.1C1380.44 487.026 1380.51 486.932 1380.57 486.825C1380.63 486.718 1380.66 486.601 1380.67 486.48C1380.68 486.371 1380.67 486.26 1380.64 486.155C1380.61 486.05 1380.55 485.953 1380.48 485.87C1380.36 485.77 1380.22 485.696 1380.07 485.653C1379.91 485.61 1379.76 485.599 1379.6 485.62H1378.92L1378.76 487.33Z" fill="#FF9933"/>
<path d="M1384.42 484.06H1390.79L1390.64 485.7H1386.64L1386.53 486.92H1390.23L1390.09 488.49H1386.39L1386.26 490H1390.36L1390.21 491.74H1383.73L1384.42 484.06Z" fill="#FF9933"/>
<path d="M1392.2 484.06H1394.42L1396.94 488.31L1397.31 484.06H1399.55L1398.88 491.74H1396.64L1394.13 487.52L1393.76 491.74H1391.52L1392.2 484.06Z" fill="#FF9933"/>
<path d="M1380.49 531.82L1374.89 529.49C1375.7 532.73 1372.53 535.07 1369.89 536.41C1368.63 537.05 1368.89 538.7 1370.42 539.31L1374.07 540.83C1378.49 542.67 1380.49 531.82 1380.49 531.82Z" fill="#FF9933"/>
<path d="M1381.63 532.29L1371.36 528.06C1370.56 527.707 1369.85 527.193 1369.26 526.549C1368.67 525.906 1368.22 525.147 1367.94 524.322C1367.65 523.496 1367.55 522.621 1367.62 521.751C1367.69 520.882 1367.94 520.037 1368.36 519.27C1369.14 517.617 1370.51 516.314 1372.19 515.616C1373.88 514.919 1375.77 514.877 1377.49 515.5L1387.75 519.77C1388.55 520.124 1389.26 520.639 1389.85 521.284C1390.44 521.928 1390.89 522.687 1391.17 523.514C1391.46 524.34 1391.56 525.216 1391.49 526.086C1391.42 526.956 1391.17 527.802 1390.75 528.57C1389.97 530.214 1388.6 531.505 1386.91 532.193C1385.22 532.881 1383.34 532.916 1381.63 532.29Z" fill="#FF9933"/>
<path opacity="0.3" d="M1381.63 532.29L1371.36 528.06C1370.56 527.707 1369.85 527.193 1369.26 526.549C1368.67 525.906 1368.22 525.147 1367.94 524.322C1367.65 523.496 1367.55 522.621 1367.62 521.751C1367.69 520.882 1367.94 520.037 1368.36 519.27C1369.14 517.617 1370.51 516.314 1372.19 515.616C1373.88 514.919 1375.77 514.877 1377.49 515.5L1387.75 519.77C1388.55 520.124 1389.26 520.639 1389.85 521.284C1390.44 521.928 1390.89 522.687 1391.17 523.514C1391.46 524.34 1391.56 525.216 1391.49 526.086C1391.42 526.956 1391.17 527.802 1390.75 528.57C1389.97 530.214 1388.6 531.505 1386.91 532.193C1385.22 532.881 1383.34 532.916 1381.63 532.29Z" fill="black"/>
<path d="M1352.54 526.56L1371.37 530.71C1372.94 531.36 1381.26 514.34 1379.69 513.71L1363.84 503.45C1361.59 502.49 1350.29 525.63 1352.54 526.56Z" fill="#FF9933"/>
<path d="M688.44 322.232C690.74 291.582 683.61 259.572 674.06 231.032C659.87 188.652 632.32 145.182 585.93 135.152C559.18 129.362 531.93 135.562 509.02 150.062C487 164.002 469.76 182.002 442.65 185.492C415.23 189.002 387.08 187.602 359.51 187.602C288.62 187.602 231.09 262.072 245.51 339.602C259.93 417.132 327.66 471.002 385.19 471.002C436.89 471.002 479.42 440.002 528.52 431.662C552.87 427.532 577.32 432.422 601.41 426.232C629.41 419.042 655.76 401.872 671.27 377.022C681.85 360.092 687 341.432 688.44 322.232Z" fill="#FF9933"/>
<path opacity="0.7" d="M688.44 322.232C690.74 291.582 683.61 259.572 674.06 231.032C659.87 188.652 632.32 145.182 585.93 135.152C559.18 129.362 531.93 135.562 509.02 150.062C487 164.002 469.76 182.002 442.65 185.492C415.23 189.002 387.08 187.602 359.51 187.602C288.62 187.602 231.09 262.072 245.51 339.602C259.93 417.132 327.66 471.002 385.19 471.002C436.89 471.002 479.42 440.002 528.52 431.662C552.87 427.532 577.32 432.422 601.41 426.232C629.41 419.042 655.76 401.872 671.27 377.022C681.85 360.092 687 341.432 688.44 322.232Z" fill="white"/>
<path d="M637.57 220.242H295.98V500.062H637.57V220.242Z" fill="#808080" stroke="#263238" stroke-linecap="round" stroke-linejoin="round"/>
<path d="M637.57 220.242H295.98V225.742H637.57V220.242Z" fill="#263238" stroke="#263238" stroke-linecap="round" stroke-linejoin="round"/>
<path d="M355.99 204.192H322.26V217.802H355.99V204.192Z" fill="#263238" stroke="#263238" stroke-linecap="round" stroke-linejoin="round"/>
<path d="M393.85 203.002H389.12V217.792H393.85V203.002Z" fill="#263238" stroke="#263238" stroke-linecap="round" stroke-linejoin="round"/>
<path d="M641.73 211.672H291.82V222.652H641.73V211.672Z" fill="white" stroke="#263238" stroke-linecap="round" stroke-linejoin="round"/>
<path d="M362.82 245.042H316.9V306.922H362.82V245.042Z" fill="#263238" stroke="#263238" stroke-linecap="round" stroke-linejoin="round"/>
<path d="M345.92 248.362H340.68V262.732H345.92V248.362Z" fill="white" stroke="#263238" stroke-linecap="round" stroke-linejoin="round"/>
<path d="M339.03 248.362H333.79V262.732H339.03V248.362Z" fill="white" stroke="#263238" stroke-linecap="round" stroke-linejoin="round"/>
<path d="M359.91 248.362H354.47V262.732H359.91V248.362Z" fill="white" stroke="#263238" stroke-linecap="round" stroke-linejoin="round"/>
<path d="M332.14 248.362H326.9V262.732H332.14V248.362Z" fill="white" stroke="#263238" stroke-linecap="round" stroke-linejoin="round"/>
<path d="M352.82 248.362H347.58V262.732H352.82V248.362Z" fill="white" stroke="#263238" stroke-linecap="round" stroke-linejoin="round"/>
<path d="M359.91 266.592H342.47V303.612H359.91V266.592Z" fill="white" stroke="#263238" stroke-linecap="round" stroke-linejoin="round"/>
<path d="M325.24 248.362H319.8V262.732H325.24V248.362Z" fill="white" stroke="#263238" stroke-linecap="round" stroke-linejoin="round"/>
<path d="M337.24 266.592H319.8V303.612H337.24V266.592Z" fill="white" stroke="#263238" stroke-linecap="round" stroke-linejoin="round"/>
<path d="M324.25 286.402L321.95 288.252" stroke="#263238" stroke-linecap="round" stroke-linejoin="round"/>
<path d="M337.34 275.832L327.11 284.092" stroke="#263238" stroke-linecap="round" stroke-linejoin="round"/>
<path d="M346.16 286.402L343.87 288.252" stroke="#263238" stroke-linecap="round" stroke-linejoin="round"/>
<path d="M359.25 275.832L349.03 284.092" stroke="#263238" stroke-linecap="round" stroke-linejoin="round"/>
<path d="M486.67 245.042H440.75V306.922H486.67V245.042Z" fill="#263238" stroke="#263238" stroke-linecap="round" stroke-linejoin="round"/>
<path d="M469.77 248.362H464.53V262.732H469.77V248.362Z" fill="white" stroke="#263238" stroke-linecap="round" stroke-linejoin="round"/>
<path d="M462.88 248.362H457.64V262.732H462.88V248.362Z" fill="white" stroke="#263238" stroke-linecap="round" stroke-linejoin="round"/>
<path d="M483.76 248.362H478.32V262.732H483.76V248.362Z" fill="white" stroke="#263238" stroke-linecap="round" stroke-linejoin="round"/>
<path d="M455.99 248.362H450.75V262.732H455.99V248.362Z" fill="white" stroke="#263238" stroke-linecap="round" stroke-linejoin="round"/>
<path d="M476.66 248.362H471.42V262.732H476.66V248.362Z" fill="white" stroke="#263238" stroke-linecap="round" stroke-linejoin="round"/>
<path d="M483.76 266.592H466.32V303.612H483.76V266.592Z" fill="white" stroke="#263238" stroke-linecap="round" stroke-linejoin="round"/>
<path d="M449.09 248.362H443.65V262.732H449.09V248.362Z" fill="white" stroke="#263238" stroke-linecap="round" stroke-linejoin="round"/>
<path d="M461.09 266.592H443.65V303.612H461.09V266.592Z" fill="white" stroke="#263238" stroke-linecap="round" stroke-linejoin="round"/>
<path d="M447.61 286.402L445.31 288.252" stroke="#263238" stroke-linecap="round" stroke-linejoin="round"/>
<path d="M460.69 275.832L450.47 284.092" stroke="#263238" stroke-linecap="round" stroke-linejoin="round"/>
<path d="M470.08 286.402L467.78 288.252" stroke="#263238" stroke-linecap="round" stroke-linejoin="round"/>
<path d="M483.17 275.832L472.94 284.092" stroke="#263238" stroke-linecap="round" stroke-linejoin="round"/>
<path d="M611.26 245.042H565.34V306.922H611.26V245.042Z" fill="#263238" stroke="#263238" stroke-linecap="round" stroke-linejoin="round"/>
<path d="M594.37 248.362H589.13V262.732H594.37V248.362Z" fill="white" stroke="#263238" stroke-linecap="round" stroke-linejoin="round"/>
<path d="M587.48 248.362H582.24V262.732H587.48V248.362Z" fill="white" stroke="#263238" stroke-linecap="round" stroke-linejoin="round"/>
<path d="M608.35 248.362H602.91V262.732H608.35V248.362Z" fill="white" stroke="#263238" stroke-linecap="round" stroke-linejoin="round"/>
<path d="M580.59 248.362H575.35V262.732H580.59V248.362Z" fill="white" stroke="#263238" stroke-linecap="round" stroke-linejoin="round"/>
<path d="M601.26 248.362H596.02V262.732H601.26V248.362Z" fill="white" stroke="#263238" stroke-linecap="round" stroke-linejoin="round"/>
<path d="M608.36 266.592H590.92V303.612H608.36V266.592Z" fill="white" stroke="#263238" stroke-linecap="round" stroke-linejoin="round"/>
<path d="M573.69 248.362H568.25V262.732H573.69V248.362Z" fill="white" stroke="#263238" stroke-linecap="round" stroke-linejoin="round"/>
<path d="M585.69 266.592H568.25V303.612H585.69V266.592Z" fill="white" stroke="#263238" stroke-linecap="round" stroke-linejoin="round"/>
<path d="M573.37 286.402L571.08 288.252" stroke="#263238" stroke-linecap="round" stroke-linejoin="round"/>
<path d="M586.46 275.832L576.24 284.092" stroke="#263238" stroke-linecap="round" stroke-linejoin="round"/>
<path d="M595.85 286.402L593.55 288.252" stroke="#263238" stroke-linecap="round" stroke-linejoin="round"/>
<path d="M608.93 275.832L598.71 284.092" stroke="#263238" stroke-linecap="round" stroke-linejoin="round"/>
<path d="M637.67 320.002H296.09V555.692H637.67V320.002Z" fill="#263238" stroke="#263238" stroke-linecap="round" stroke-linejoin="round"/>
<path d="M500.26 422.732H427.31V555.692H500.26V422.732Z" fill="#FF9933" stroke="#263238" stroke-linecap="round" stroke-linejoin="round"/>
<path d="M432.29 541.232H494.37V532.732H432.29H494.37V524.232H432.29H494.37V515.732H432.29H494.37V507.232H432.29H494.37V505.832H432.11V548.312H494.37V541.232H432.29Z" fill="#D6D6D6" stroke="#263238" stroke-width="0.771756" stroke-linecap="round" stroke-linejoin="round"/>
<path d="M432.29 490.232H494.37V481.732H432.29H494.37V473.232H432.29H494.37V464.732H432.29H494.37V456.232H432.29H494.37V447.732H432.29H494.37V439.232H432.29H494.37V430.732H432.29H494.37V429.192H432.11V498.442H494.37V490.232H432.29Z" fill="#D6D6D6" stroke="#263238" stroke-width="0.771756" stroke-linecap="round" stroke-linejoin="round"/>
<path d="M498.18 482.162H495.9V506.452H498.18V482.162Z" fill="#263238" stroke="#263238" stroke-linecap="round" stroke-linejoin="round"/>
<path d="M454.15 471.282L462.91 460.152L472.35 471.612" stroke="#263238" stroke-linecap="round" stroke-linejoin="round"/>
<path d="M476.73 469.592H448.42V484.422H476.73V469.592Z" fill="white" stroke="#263238" stroke-linecap="round" stroke-linejoin="round"/>
<path d="M454 480.442C453.843 480.634 453.642 480.785 453.414 480.883C453.186 480.98 452.937 481.021 452.69 481.002C452.435 481.02 452.179 480.974 451.945 480.87C451.711 480.765 451.507 480.604 451.35 480.402C451.027 479.889 450.873 479.287 450.91 478.682V475.162C450.91 473.962 451.22 473.162 451.85 472.912C452.118 472.794 452.408 472.736 452.7 472.742C453.83 472.742 454.4 473.462 454.4 474.892V476.002H453.21V475.002C453.23 474.701 453.192 474.399 453.1 474.112C453.071 474.028 453.016 473.956 452.941 473.907C452.867 473.858 452.779 473.835 452.69 473.842C452.599 473.835 452.508 473.859 452.432 473.91C452.356 473.961 452.299 474.035 452.27 474.122C452.176 474.402 452.135 474.697 452.15 474.992V478.762C452.13 479.079 452.168 479.398 452.26 479.702C452.292 479.787 452.349 479.86 452.425 479.91C452.5 479.96 452.589 479.986 452.68 479.982C452.772 479.985 452.862 479.958 452.938 479.906C453.013 479.854 453.07 479.779 453.1 479.692C453.187 479.387 453.224 479.069 453.21 478.752V477.602H454.42V478.742C454.459 479.338 454.312 479.932 454 480.442Z" fill="#263238"/>
<path d="M455.46 480.912V472.842H456.69V479.842H458.24V480.892L455.46 480.912Z" fill="#263238"/>
<path d="M462 480.422C461.841 480.623 461.634 480.781 461.398 480.882C461.162 480.983 460.905 481.025 460.65 481.002C460.393 481.024 460.135 480.982 459.898 480.881C459.661 480.78 459.452 480.622 459.29 480.422C458.963 479.892 458.809 479.273 458.85 478.652V475.002C458.85 473.522 459.46 472.782 460.67 472.782C460.922 472.759 461.176 472.798 461.41 472.895C461.643 472.993 461.849 473.146 462.01 473.342C462.318 473.838 462.462 474.419 462.42 475.002V478.692C462.458 479.298 462.312 479.901 462 480.422ZM460.2 479.662C460.233 479.75 460.293 479.826 460.373 479.876C460.452 479.927 460.546 479.95 460.64 479.942C460.735 479.951 460.831 479.927 460.911 479.875C460.991 479.822 461.051 479.743 461.08 479.652C461.17 479.327 461.207 478.989 461.19 478.652V474.902C461.203 474.621 461.166 474.34 461.08 474.072C461.049 473.987 460.992 473.915 460.916 473.866C460.84 473.817 460.75 473.795 460.66 473.802C460.568 473.795 460.475 473.817 460.396 473.866C460.317 473.914 460.256 473.986 460.22 474.072C460.12 474.337 460.076 474.619 460.09 474.902V478.672C460.058 479.003 460.078 479.337 460.15 479.662H460.2Z" fill="#263238"/>
<path d="M463.33 478.642V477.922H464.49V478.732C464.471 479.053 464.512 479.376 464.61 479.682C464.642 479.768 464.702 479.841 464.78 479.889C464.857 479.938 464.949 479.96 465.04 479.952C465.124 479.963 465.21 479.948 465.285 479.909C465.36 479.87 465.421 479.808 465.46 479.732C465.541 479.494 465.575 479.243 465.56 478.992C465.566 478.686 465.505 478.382 465.38 478.102C465.226 477.812 465.031 477.546 464.8 477.312L464.2 476.702C463.935 476.437 463.715 476.129 463.55 475.792C463.392 475.454 463.314 475.085 463.32 474.712C463.282 474.191 463.415 473.671 463.7 473.232C463.869 473.053 464.077 472.916 464.307 472.831C464.538 472.746 464.786 472.715 465.03 472.742C465.274 472.712 465.521 472.749 465.745 472.849C465.969 472.95 466.161 473.11 466.3 473.312C466.55 473.824 466.664 474.393 466.63 474.962V475.462H465.5V474.882C465.516 474.598 465.482 474.314 465.4 474.042C465.372 473.962 465.319 473.894 465.248 473.847C465.178 473.8 465.094 473.777 465.01 473.782C464.93 473.776 464.85 473.791 464.778 473.826C464.706 473.861 464.644 473.915 464.6 473.982C464.505 474.16 464.46 474.361 464.47 474.562C464.464 474.773 464.509 474.982 464.6 475.172C464.735 475.385 464.892 475.583 465.07 475.762L465.73 476.482C466.038 476.804 466.295 477.172 466.49 477.572C466.661 477.956 466.746 478.372 466.74 478.792C466.778 479.374 466.646 479.954 466.36 480.462C466.198 480.66 465.988 480.813 465.75 480.908C465.512 481.002 465.254 481.035 465 481.002C464.745 481.03 464.487 480.988 464.253 480.883C464.02 480.778 463.818 480.611 463.67 480.402C463.401 479.857 463.283 479.249 463.33 478.642Z" fill="#263238"/>
<path d="M467.64 480.912V472.842H470.35V473.902H468.87V476.242H470.27V477.242H468.87V479.812H470.4V480.872L467.64 480.912Z" fill="#263238"/>
<path d="M471.38 480.912V472.842H473.19C473.431 472.82 473.674 472.855 473.898 472.946C474.122 473.036 474.322 473.179 474.48 473.362C474.778 473.822 474.919 474.366 474.88 474.912V478.552C474.925 479.176 474.783 479.8 474.47 480.342C474.314 480.541 474.11 480.697 473.878 480.797C473.645 480.896 473.392 480.936 473.14 480.912H471.38ZM472.61 479.912H473.01C473.104 479.921 473.198 479.906 473.284 479.867C473.37 479.829 473.445 479.768 473.5 479.692C473.632 479.447 473.688 479.169 473.66 478.892V474.892C473.683 474.588 473.631 474.282 473.51 474.002C473.456 473.912 473.378 473.839 473.284 473.791C473.19 473.743 473.085 473.723 472.98 473.732H472.62L472.61 479.912Z" fill="#263238"/>
<path d="M630.85 422.852H520.5V555.692H630.85V422.852Z" fill="#D6D6D6" stroke="#263238" stroke-linecap="round" stroke-linejoin="round"/>
<path d="M520.83 549.882H630.9" stroke="#263238" stroke-linecap="round" stroke-linejoin="round"/>
<path d="M520.83 541.382H630.9" stroke="#263238" stroke-linecap="round" stroke-linejoin="round"/>
<path d="M520.83 532.882H630.9" stroke="#263238" stroke-linecap="round" stroke-linejoin="round"/>
<path d="M520.83 524.382H630.9" stroke="#263238" stroke-linecap="round" stroke-linejoin="round"/>
<path d="M520.83 515.882H630.9" stroke="#263238" stroke-linecap="round" stroke-linejoin="round"/>
<path d="M520.83 507.382H630.9" stroke="#263238" stroke-linecap="round" stroke-linejoin="round"/>
<path d="M520.83 498.882H630.9" stroke="#263238" stroke-linecap="round" stroke-linejoin="round"/>
<path d="M520.83 490.382H630.9" stroke="#263238" stroke-linecap="round" stroke-linejoin="round"/>
<path d="M520.83 481.882H630.9" stroke="#263238" stroke-linecap="round" stroke-linejoin="round"/>
<path d="M520.83 473.382H630.9" stroke="#263238" stroke-linecap="round" stroke-linejoin="round"/>
<path d="M520.83 464.882H630.9" stroke="#263238" stroke-linecap="round" stroke-linejoin="round"/>
<path d="M520.83 456.382H630.9" stroke="#263238" stroke-linecap="round" stroke-linejoin="round"/>
<path d="M520.83 447.882H630.9" stroke="#263238" stroke-linecap="round" stroke-linejoin="round"/>
<path d="M520.83 439.382H630.9" stroke="#263238" stroke-linecap="round" stroke-linejoin="round"/>
<path d="M520.83 430.882H630.9" stroke="#263238" stroke-linecap="round" stroke-linejoin="round"/>
<path d="M408.77 422.852H304.24V555.692H408.77V422.852Z" fill="#D6D6D6" stroke="#263238" stroke-linecap="round" stroke-linejoin="round"/>
<path d="M304.55 549.882H408.81" stroke="#263238" stroke-linecap="round" stroke-linejoin="round"/>
<path d="M304.55 541.382H408.81" stroke="#263238" stroke-linecap="round" stroke-linejoin="round"/>
<path d="M304.55 532.882H408.81" stroke="#263238" stroke-linecap="round" stroke-linejoin="round"/>
<path d="M304.55 524.382H408.81" stroke="#263238" stroke-linecap="round" stroke-linejoin="round"/>
<path d="M304.55 515.882H408.81" stroke="#263238" stroke-linecap="round" stroke-linejoin="round"/>
<path d="M304.55 507.382H408.81" stroke="#263238" stroke-linecap="round" stroke-linejoin="round"/>
<path d="M304.55 498.882H408.81" stroke="#263238" stroke-linecap="round" stroke-linejoin="round"/>
<path d="M304.55 490.382H408.81" stroke="#263238" stroke-linecap="round" stroke-linejoin="round"/>
<path d="M304.55 481.882H408.81" stroke="#263238" stroke-linecap="round" stroke-linejoin="round"/>
<path d="M304.55 473.382H408.81" stroke="#263238" stroke-linecap="round" stroke-linejoin="round"/>
<path d="M304.55 464.882H408.81" stroke="#263238" stroke-linecap="round" stroke-linejoin="round"/>
<path d="M304.55 456.382H408.81" stroke="#263238" stroke-linecap="round" stroke-linejoin="round"/>
<path d="M304.55 447.882H408.81" stroke="#263238" stroke-linecap="round" stroke-linejoin="round"/>
<path d="M304.55 439.382H408.81" stroke="#263238" stroke-linecap="round" stroke-linejoin="round"/>
<path d="M304.55 430.882H408.81" stroke="#263238" stroke-linecap="round" stroke-linejoin="round"/>
<path opacity="0.3" d="M637.67 397.662H296.83V442.832H637.67V397.662Z" fill="black"/>
<path d="M635 382.442H299V427.612H635V382.442Z" fill="white" stroke="#263238" stroke-linecap="round" stroke-linejoin="round"/>
<path d="M332.41 382.442H316.94V427.612H332.41V382.442Z" fill="#FF9933" stroke="#263238" stroke-linecap="round" stroke-linejoin="round"/>
<path d="M365.2 382.442H349.73V427.612H365.2V382.442Z" fill="#FF9933" stroke="#263238" stroke-linecap="round" stroke-linejoin="round"/>
<path d="M398 382.442H382.53V427.612H398V382.442Z" fill="#FF9933" stroke="#263238" stroke-linecap="round" stroke-linejoin="round"/>
<path d="M429.19 382.442H413.72V427.612H429.19V382.442Z" fill="#FF9933" stroke="#263238" stroke-linecap="round" stroke-linejoin="round"/>
<path d="M460.38 382.442H444.91V427.612H460.38V382.442Z" fill="#FF9933" stroke="#263238" stroke-linecap="round" stroke-linejoin="round"/>
<path d="M491.58 382.442H476.11V427.612H491.58V382.442Z" fill="#FF9933" stroke="#263238" stroke-linecap="round" stroke-linejoin="round"/>
<path d="M522.77 382.442H507.3V427.612H522.77V382.442Z" fill="#FF9933" stroke="#263238" stroke-linecap="round" stroke-linejoin="round"/>
<path d="M553.96 382.442H538.49V427.612H553.96V382.442Z" fill="#FF9933" stroke="#263238" stroke-linecap="round" stroke-linejoin="round"/>
<path d="M585.16 382.442H569.69V427.612H585.16V382.442Z" fill="#FF9933" stroke="#263238" stroke-linecap="round" stroke-linejoin="round"/>
<path d="M616.35 382.442H600.88V427.612H616.35V382.442Z" fill="#FF9933" stroke="#263238" stroke-linecap="round" stroke-linejoin="round"/>
<path d="M319.24 320.002L313.38 371.022L335.41 320.002H319.24Z" fill="#FF9933" stroke="#263238" stroke-linecap="round" stroke-linejoin="round"/>
<path d="M356.61 320.002L310.93 382.042L380.44 320.002H356.61Z" fill="#FF9933" stroke="#263238" stroke-linecap="round" stroke-linejoin="round"/>
<path d="M502.88 320.002L331.73 375.922L613.56 320.002H502.88Z" fill="#FF9933" stroke="#263238" stroke-linecap="round" stroke-linejoin="round"/>
<path d="M399.61 320.002L323.78 377.142L444.23 320.002H399.61Z" fill="#FF9933" stroke="#263238" stroke-linecap="round" stroke-linejoin="round"/>
<path d="M393.55 456.502H320.96V508.002H393.55V456.502Z" fill="#FF9933" stroke="#263238" stroke-width="0.895581" stroke-linecap="round" stroke-linejoin="round"/>
<path d="M334.75 467.472C334.75 465.562 335.75 464.472 337.6 464.472C339.45 464.472 340.45 465.562 340.45 467.472V473.682C340.45 475.592 339.45 476.682 337.6 476.682C335.75 476.682 334.75 475.592 334.75 473.682V467.472ZM336.63 473.802C336.63 474.652 337 474.972 337.63 474.972C338.26 474.972 338.63 474.652 338.63 473.802V467.352C338.63 466.502 338.26 466.172 337.63 466.172C337 466.172 336.63 466.502 336.63 467.352V473.802Z" fill="#263238"/>
<path d="M347.56 467.562V469.112C347.56 471.022 346.64 472.062 344.76 472.062H343.88V476.542H342V464.602H344.76C346.64 464.602 347.56 465.642 347.56 467.562ZM343.88 466.312V470.312H344.76C345.36 470.312 345.68 470.042 345.68 469.192V467.402C345.68 466.542 345.36 466.272 344.76 466.272L343.88 466.312Z" fill="#263238"/>
<path d="M350.73 469.642H353.31V471.342H350.73V474.842H354V476.542H348.89V464.602H354V466.312H350.76L350.73 469.642Z" fill="#263238"/>
<path d="M357.15 467.902V476.542H355.46V464.602H357.81L359.74 471.752V464.602H361.41V476.542H359.48L357.15 467.902Z" fill="#263238"/>
<path d="M363.1 464.602H365V476.542H363.1V464.602Z" fill="#263238"/>
<path d="M368.35 467.902V476.542H366.67V464.602H369L370.93 471.752V464.602H372.6V476.542H370.67L368.35 467.902Z" fill="#263238"/>
<path d="M377.12 469.892H379.75V473.682C379.75 475.592 378.8 476.682 376.95 476.682C375.1 476.682 374.16 475.592 374.16 473.682V467.472C374.16 465.562 375.16 464.472 376.95 464.472C378.74 464.472 379.75 465.562 379.75 467.472V468.632H378V467.352C378 466.502 377.62 466.172 377 466.172C376.38 466.172 376 466.502 376 467.352V473.802C376 474.652 376.38 474.962 377 474.962C377.62 474.962 378 474.652 378 473.802V471.602H377.14L377.12 469.892Z" fill="#263238"/>
<path d="M339.42 479.782C342.42 479.782 344 481.592 344 484.782V485.402H341.06V484.582C341.06 483.162 340.49 482.632 339.5 482.632C338.51 482.632 337.95 483.162 337.95 484.582C337.95 488.652 344.03 489.422 344.03 495.072C344.03 498.242 342.44 500.072 339.39 500.072C336.34 500.072 334.75 498.262 334.75 495.072V493.862H337.69V495.272C337.69 496.692 338.31 497.192 339.3 497.192C340.29 497.192 340.92 496.692 340.92 495.272C340.92 491.202 334.83 490.432 334.83 484.782C334.83 481.592 336.39 479.782 339.42 479.782Z" fill="#263238"/>
<path d="M346.12 484.762C346.12 481.592 347.79 479.762 350.84 479.762C353.89 479.762 355.57 481.572 355.57 484.762V495.052C355.57 498.222 353.9 500.052 350.84 500.052C347.78 500.052 346.12 498.242 346.12 495.052V484.762ZM349.23 495.252C349.23 496.672 349.85 497.202 350.84 497.202C351.83 497.202 352.46 496.672 352.46 495.252V484.562C352.46 483.142 351.83 482.612 350.84 482.612C349.85 482.612 349.23 483.142 349.23 484.562V495.252Z" fill="#263238"/>
<path d="M357.88 484.762C357.88 481.592 359.55 479.762 362.61 479.762C365.67 479.762 367.33 481.572 367.33 484.762V495.052C367.33 498.222 365.66 500.052 362.61 500.052C359.56 500.052 357.88 498.242 357.88 495.052V484.762ZM361 495.252C361 496.672 361.62 497.202 362.61 497.202C363.6 497.202 364.22 496.672 364.22 495.252V484.562C364.22 483.142 363.6 482.612 362.61 482.612C361.62 482.612 361 483.142 361 484.562V495.252Z" fill="#263238"/>
<path d="M372.68 485.462V499.812H369.88V480.002H373.78L376.98 491.862V480.002H379.75V499.812H376.55L372.68 485.462Z" fill="#263238"/>
<path d="M612.05 456.502H539.46V508.002H612.05V456.502Z" fill="#FF9933" stroke="#263238" stroke-width="0.895581" stroke-linecap="round" stroke-linejoin="round"/>
<path d="M553.25 467.472C553.25 465.562 554.25 464.472 556.1 464.472C557.95 464.472 558.95 465.562 558.95 467.472V473.682C558.95 475.592 557.95 476.682 556.1 476.682C554.25 476.682 553.25 475.592 553.25 473.682V467.472ZM555.13 473.802C555.13 474.652 555.5 474.972 556.13 474.972C556.76 474.972 557.13 474.652 557.13 473.802V467.352C557.13 466.502 556.76 466.172 556.13 466.172C555.5 466.172 555.13 466.502 555.13 467.352V473.802Z" fill="#263238"/>
<path d="M566.06 467.562V469.112C566.06 471.022 565.14 472.062 563.26 472.062H562.38V476.542H560.5V464.602H563.26C565.14 464.602 566.06 465.642 566.06 467.562ZM562.38 466.312V470.312H563.26C563.86 470.312 564.18 470.042 564.18 469.192V467.402C564.18 466.542 563.86 466.272 563.26 466.272L562.38 466.312Z" fill="#263238"/>
<path d="M569.23 469.642H571.81V471.342H569.23V474.842H572.47V476.542H567.36V464.602H572.47V466.312H569.23V469.642Z" fill="#263238"/>
<path d="M575.65 467.902V476.542H574V464.602H576.35L578.28 471.752V464.602H579.95V476.542H578L575.65 467.902Z" fill="#263238"/>
<path d="M581.6 464.602H583.48V476.542H581.6V464.602Z" fill="#263238"/>
<path d="M586.85 467.902V476.542H585.17V464.602H587.52L589.45 471.752V464.602H591.12V476.542H589.19L586.85 467.902Z" fill="#263238"/>
<path d="M595.62 469.892H598.25V473.682C598.25 475.592 597.3 476.682 595.45 476.682C593.6 476.682 592.66 475.592 592.66 473.682V467.472C592.66 465.562 593.61 464.472 595.45 464.472C597.29 464.472 598.25 465.562 598.25 467.472V468.632H596.48V467.352C596.48 466.502 596.1 466.172 595.48 466.172C594.86 466.172 594.48 466.502 594.48 467.352V473.802C594.48 474.652 594.86 474.962 595.48 474.962C596.1 474.962 596.48 474.652 596.48 473.802V471.602H595.62V469.892Z" fill="#263238"/>
<path d="M557.92 479.782C560.92 479.782 562.5 481.592 562.5 484.782V485.402H559.56V484.582C559.56 483.162 558.99 482.632 558 482.632C557.01 482.632 556.45 483.162 556.45 484.582C556.45 488.652 562.53 489.422 562.53 495.072C562.53 498.242 560.94 500.072 557.89 500.072C554.84 500.072 553.25 498.262 553.25 495.072V493.862H556.19V495.272C556.19 496.692 556.81 497.192 557.8 497.192C558.79 497.192 559.42 496.692 559.42 495.272C559.42 491.202 553.33 490.432 553.33 484.782C553.33 481.592 554.89 479.782 557.92 479.782Z" fill="#263238"/>
<path d="M564.62 484.762C564.62 481.592 566.29 479.762 569.34 479.762C572.39 479.762 574.07 481.572 574.07 484.762V495.052C574.07 498.222 572.4 500.052 569.34 500.052C566.28 500.052 564.62 498.242 564.62 495.052V484.762ZM567.73 495.252C567.73 496.672 568.35 497.202 569.34 497.202C570.33 497.202 570.96 496.672 570.96 495.252V484.562C570.96 483.142 570.33 482.612 569.34 482.612C568.35 482.612 567.73 483.142 567.73 484.562V495.252Z" fill="#263238"/>
<path d="M576.38 484.762C576.38 481.592 578.05 479.762 581.11 479.762C584.17 479.762 585.83 481.572 585.83 484.762V495.052C585.83 498.222 584.16 500.052 581.11 500.052C578.06 500.052 576.38 498.242 576.38 495.052V484.762ZM579.5 495.252C579.5 496.672 580.12 497.202 581.11 497.202C582.1 497.202 582.72 496.672 582.72 495.252V484.562C582.72 483.142 582.1 482.612 581.11 482.612C580.12 482.612 579.5 483.142 579.5 484.562V495.252Z" fill="#263238"/>
<path d="M591.18 485.462V499.812H588.38V480.002H592.28L595.48 491.862V480.002H598.25V499.812H595.05L591.18 485.462Z" fill="#263238"/>
<path d="M600.4 395.792C600.4 395.792 631.7 398.892 647.57 418.292C647.57 418.292 664.33 395.812 694.43 396.292C701.791 387.419 706.48 376.638 707.95 365.203C709.42 353.769 707.611 342.152 702.734 331.706C697.856 321.259 690.111 312.414 680.401 306.2C670.69 299.986 659.414 296.658 647.885 296.606C636.356 296.553 625.05 299.777 615.283 305.902C605.516 312.027 597.69 320.801 592.718 331.202C587.745 341.603 585.83 353.203 587.195 364.651C588.56 376.098 593.15 386.922 600.43 395.862L600.4 395.792Z" fill="#FF9933"/>
<path opacity="0.5" d="M600.4 395.792C600.4 395.792 631.7 398.892 647.57 418.292C647.57 418.292 664.33 395.812 694.43 396.292C701.791 387.419 706.48 376.638 707.95 365.203C709.42 353.769 707.611 342.152 702.734 331.706C697.856 321.259 690.111 312.414 680.401 306.2C670.69 299.986 659.414 296.658 647.885 296.606C636.356 296.553 625.05 299.777 615.283 305.902C605.516 312.027 597.69 320.801 592.718 331.202C587.745 341.603 585.83 353.203 587.195 364.651C588.56 376.098 593.15 386.922 600.43 395.862L600.4 395.792Z" fill="white"/>
<path d="M646.53 300.902L645.47 549.802H650.76L646.53 300.902Z" fill="#828282"/>
<path d="M648.11 412.382C648.11 412.382 658.68 393.382 677.7 387.552C677.7 387.552 657.62 392.302 647.59 408.682L648.11 412.382Z" fill="#828282"/>
<path d="M647.32 359.542C647.32 359.542 658.68 339.472 677.7 333.662C677.7 333.662 657.44 339.172 647.4 355.552L647.32 359.542Z" fill="#828282"/>
<path d="M647.63 386.112C647.63 386.112 658.68 366.412 677.7 360.602C677.7 360.602 657.62 365.362 647.59 381.742L647.63 386.112Z" fill="#828282"/>
<path d="M646.55 372.232C646.55 372.232 636.35 353.232 618 347.392C618 347.392 637.37 352.152 647.06 368.532L646.55 372.232Z" fill="#828282"/>
<path d="M646.55 398.642C646.55 398.642 636.35 379.642 618 373.812C618 373.812 637.37 378.572 647.06 394.942L646.55 398.642Z" fill="#828282"/>
<path d="M667.8 545.822H625.83V555.452H667.8V545.822Z" fill="white" stroke="#263238" stroke-linecap="round" stroke-linejoin="round"/>
<path d="M671.86 555.522H264.05V563.002H671.86V555.522Z" fill="white" stroke="#263238" stroke-linecap="round" stroke-linejoin="round"/>
<path d="M243 563.002H696" stroke="#263238" stroke-miterlimit="10"/>
</svg>
