<svg width="1920" height="400" viewBox="0 0 1920 400" fill="none" xmlns="http://www.w3.org/2000/svg">
<rect width="1920" height="400" fill="#DCDCDC"/>
<path d="M900.755 194.992C903.293 194.992 905.501 195.28 907.379 195.856C909.277 196.411 910.781 197.008 911.891 197.648C913.021 198.288 913.704 198.704 913.939 198.896L910.035 205.392C909.693 205.115 909.107 204.731 908.275 204.24C907.464 203.728 906.483 203.28 905.331 202.896C904.179 202.491 902.931 202.288 901.587 202.288C899.645 202.288 898.088 202.661 896.915 203.408C895.763 204.133 895.187 205.189 895.187 206.576C895.187 207.515 895.496 208.357 896.115 209.104C896.733 209.829 897.64 210.512 898.835 211.152C900.051 211.792 901.533 212.464 903.283 213.168C904.819 213.765 906.28 214.459 907.667 215.248C909.075 216.037 910.323 216.965 911.411 218.032C912.52 219.099 913.395 220.336 914.035 221.744C914.696 223.152 915.027 224.763 915.027 226.576C915.027 228.603 914.611 230.373 913.779 231.888C912.968 233.403 911.837 234.672 910.387 235.696C908.957 236.72 907.315 237.488 905.459 238C903.603 238.512 901.651 238.768 899.603 238.768C896.829 238.768 894.333 238.448 892.115 237.808C889.917 237.147 888.136 236.443 886.771 235.696C885.405 234.949 884.605 234.469 884.371 234.256L888.467 227.504C888.723 227.696 889.203 228.005 889.907 228.432C890.632 228.859 891.507 229.296 892.531 229.744C893.576 230.192 894.707 230.576 895.923 230.896C897.16 231.216 898.419 231.376 899.699 231.376C902.003 231.376 903.741 230.896 904.915 229.936C906.088 228.976 906.675 227.728 906.675 226.192C906.675 225.04 906.301 224.027 905.555 223.152C904.808 222.277 903.752 221.477 902.387 220.752C901.043 220.005 899.432 219.248 897.555 218.48C895.677 217.691 893.928 216.773 892.307 215.728C890.707 214.661 889.416 213.36 888.435 211.824C887.453 210.267 886.963 208.357 886.963 206.096C886.963 203.856 887.592 201.904 888.851 200.24C890.131 198.576 891.816 197.285 893.907 196.368C896.019 195.451 898.301 194.992 900.755 194.992ZM918.985 211.728H923.721V200.944H931.785V211.728H937.993V218.48H931.785V227.984C931.785 229.243 931.988 230.224 932.393 230.928C932.799 231.611 933.439 231.952 934.313 231.952C934.975 231.952 935.519 231.824 935.945 231.568C936.372 231.291 936.628 231.099 936.713 230.992L939.593 236.816C939.465 236.944 939.049 237.168 938.345 237.488C937.663 237.808 936.777 238.096 935.689 238.352C934.623 238.629 933.417 238.768 932.073 238.768C929.663 238.768 927.668 238.075 926.089 236.688C924.511 235.28 923.721 233.104 923.721 230.16V218.48H918.985V211.728ZM956.559 238.768C953.764 238.768 951.268 238.171 949.071 236.976C946.895 235.781 945.188 234.149 943.951 232.08C942.713 229.989 942.095 227.611 942.095 224.944C942.095 222.277 942.713 219.899 943.951 217.808C945.188 215.696 946.895 214.032 949.071 212.816C951.268 211.579 953.764 210.96 956.559 210.96C959.375 210.96 961.86 211.579 964.015 212.816C966.169 214.032 967.855 215.696 969.071 217.808C970.287 219.899 970.895 222.277 970.895 224.944C970.895 227.611 970.287 229.989 969.071 232.08C967.855 234.149 966.169 235.781 964.015 236.976C961.86 238.171 959.375 238.768 956.559 238.768ZM956.559 232.016C957.903 232.016 959.065 231.717 960.047 231.12C961.049 230.501 961.817 229.659 962.351 228.592C962.905 227.504 963.183 226.277 963.183 224.912C963.183 223.547 962.905 222.32 962.351 221.232C961.817 220.144 961.049 219.291 960.047 218.672C959.065 218.032 957.903 217.712 956.559 217.712C955.215 217.712 954.041 218.032 953.039 218.672C952.057 219.291 951.289 220.144 950.735 221.232C950.18 222.32 949.903 223.547 949.903 224.912C949.903 226.277 950.18 227.504 950.735 228.592C951.289 229.659 952.057 230.501 953.039 231.12C954.041 231.717 955.215 232.016 956.559 232.016ZM993.566 211.728H1002.91L990.078 224.272L1004.06 238H994.494L983.582 227.024V238H975.454V193.968H983.582V221.36L993.566 211.728ZM1024.38 211.728H1033.72L1020.89 224.272L1034.87 238H1025.31L1014.39 227.024V238H1006.27V193.968H1014.39V221.36L1024.38 211.728ZM1042.77 226.672C1042.84 227.867 1043.16 228.933 1043.73 229.872C1044.31 230.811 1045.14 231.547 1046.23 232.08C1047.34 232.613 1048.66 232.88 1050.2 232.88C1051.58 232.88 1052.8 232.709 1053.85 232.368C1054.91 232.027 1055.81 231.611 1056.53 231.12C1057.28 230.608 1057.83 230.117 1058.2 229.648L1061.56 234.64C1060.96 235.387 1060.16 236.08 1059.16 236.72C1058.18 237.339 1056.92 237.829 1055.38 238.192C1053.87 238.576 1051.97 238.768 1049.69 238.768C1046.81 238.768 1044.28 238.203 1042.1 237.072C1039.93 235.941 1038.23 234.309 1037.01 232.176C1035.8 230.043 1035.19 227.504 1035.19 224.56C1035.19 222 1035.73 219.696 1036.82 217.648C1037.91 215.579 1039.49 213.947 1041.56 212.752C1043.65 211.557 1046.15 210.96 1049.08 210.96C1051.83 210.96 1054.21 211.493 1056.21 212.56C1058.24 213.605 1059.81 215.141 1060.92 217.168C1062.03 219.195 1062.58 221.669 1062.58 224.592C1062.58 224.763 1062.57 225.115 1062.55 225.648C1062.55 226.16 1062.53 226.501 1062.49 226.672H1042.77ZM1054.97 221.648C1054.94 220.965 1054.73 220.229 1054.33 219.44C1053.94 218.651 1053.33 217.979 1052.5 217.424C1051.67 216.869 1050.56 216.592 1049.17 216.592C1047.79 216.592 1046.65 216.859 1045.75 217.392C1044.87 217.925 1044.21 218.587 1043.77 219.376C1043.32 220.144 1043.06 220.901 1043 221.648H1054.97ZM1075.62 238H1067.49V211.728H1075.62V215.984H1075.46C1075.61 215.472 1076.02 214.821 1076.68 214.032C1077.36 213.243 1078.3 212.539 1079.49 211.92C1080.69 211.28 1082.13 210.96 1083.81 210.96C1085.03 210.96 1086.13 211.141 1087.11 211.504C1088.11 211.845 1088.83 212.187 1089.25 212.528L1086.05 219.184C1085.78 218.843 1085.25 218.491 1084.49 218.128C1083.74 217.765 1082.8 217.584 1081.67 217.584C1080.33 217.584 1079.21 217.957 1078.31 218.704C1077.41 219.429 1076.74 220.325 1076.29 221.392C1075.85 222.437 1075.62 223.419 1075.62 224.336V238ZM1102.89 210.96C1104.47 210.96 1105.93 211.109 1107.27 211.408C1108.62 211.685 1109.75 212.005 1110.67 212.368C1111.6 212.731 1112.22 213.04 1112.52 213.296L1109.74 218.192C1109.31 217.851 1108.54 217.445 1107.43 216.976C1106.35 216.507 1105.13 216.272 1103.79 216.272C1102.57 216.272 1101.55 216.485 1100.71 216.912C1099.88 217.317 1099.47 217.936 1099.47 218.768C1099.47 219.6 1099.91 220.261 1100.81 220.752C1101.71 221.243 1102.95 221.669 1104.55 222.032C1105.9 222.309 1107.22 222.736 1108.52 223.312C1109.82 223.867 1110.9 224.677 1111.75 225.744C1112.61 226.789 1113.03 228.187 1113.03 229.936C1113.03 231.664 1112.66 233.104 1111.91 234.256C1111.19 235.387 1110.22 236.283 1109 236.944C1107.79 237.605 1106.45 238.075 1105 238.352C1103.55 238.629 1102.11 238.768 1100.68 238.768C1098.83 238.768 1097.19 238.587 1095.79 238.224C1094.38 237.883 1093.22 237.488 1092.3 237.04C1091.4 236.571 1090.76 236.176 1090.38 235.856L1093.16 230.416C1093.72 230.907 1094.62 231.451 1095.88 232.048C1097.16 232.624 1098.54 232.912 1100.01 232.912C1101.55 232.912 1102.75 232.645 1103.63 232.112C1104.52 231.579 1104.97 230.864 1104.97 229.968C1104.97 229.307 1104.76 228.773 1104.33 228.368C1103.9 227.941 1103.32 227.589 1102.57 227.312C1101.82 227.035 1100.95 226.789 1099.95 226.576C1099.03 226.384 1098.09 226.107 1097.13 225.744C1096.17 225.36 1095.27 224.859 1094.44 224.24C1093.61 223.621 1092.94 222.853 1092.43 221.936C1091.91 220.997 1091.66 219.877 1091.66 218.576C1091.66 216.912 1092.19 215.525 1093.26 214.416C1094.32 213.285 1095.71 212.432 1097.42 211.856C1099.12 211.259 1100.95 210.96 1102.89 210.96Z" fill="#FF6700"/>
<path fill-rule="evenodd" clip-rule="evenodd" d="M823.75 177.875C823.292 177.875 822.843 178.002 822.453 178.243C822.063 178.484 821.748 178.828 821.543 179.238L814.137 194.05C813.965 194.394 813.875 194.772 813.875 195.156V209.969C813.875 210.624 814.135 211.251 814.598 211.714C815.061 212.177 815.689 212.438 816.344 212.438H818.812V237.125H823.75V212.438H831.156V234.656C831.156 235.311 831.416 235.939 831.879 236.402C832.342 236.865 832.97 237.125 833.625 237.125H865.719C866.374 237.125 867.001 236.865 867.464 236.402C867.927 235.939 868.188 235.311 868.188 234.656V212.438H870.656C871.311 212.438 871.939 212.177 872.402 211.714C872.865 211.251 873.125 210.624 873.125 209.969V195.156C873.125 194.772 873.035 194.394 872.863 194.05L865.457 179.238C865.252 178.828 864.937 178.484 864.547 178.243C864.157 178.002 863.708 177.875 863.25 177.875H823.75ZM836.094 232.188V212.438H863.25V232.188H836.094ZM833.625 197.625H828.688V207.5H833.625V197.625ZM841.031 197.625H845.969V207.5H841.031V197.625ZM858.312 197.625H853.375V207.5H858.312V197.625Z" fill="#FF6700"/>
</svg>
