<svg width="256" height="256" viewBox="0 0 256 256" fill="none" xmlns="http://www.w3.org/2000/svg">
<rect width="256" height="256" fill="#FF9933"/>
<path fill-rule="evenodd" clip-rule="evenodd" d="M85.5 64.25C84.5142 64.25 83.5479 64.5243 82.7091 65.0422C81.8704 65.5601 81.1922 66.3012 80.7506 67.1825L64.8131 99.0575C64.4429 99.7962 64.2501 100.611 64.25 101.438V133.312C64.25 134.721 64.8097 136.073 65.806 137.069C66.8023 138.065 68.1535 138.625 69.5625 138.625H74.875V191.75H85.5V138.625H101.438V186.438C101.438 187.846 101.997 189.198 102.993 190.194C103.99 191.19 105.341 191.75 106.75 191.75H175.812C177.221 191.75 178.573 191.19 179.569 190.194C180.565 189.198 181.125 187.846 181.125 186.438V138.625H186.438C187.846 138.625 189.198 138.065 190.194 137.069C191.19 136.073 191.75 134.721 191.75 133.312V101.438C191.75 100.611 191.557 99.7962 191.187 99.0575L175.249 67.1825C174.808 66.3012 174.13 65.5601 173.291 65.0422C172.452 64.5243 171.486 64.25 170.5 64.25H85.5ZM112.062 181.125V138.625H170.5V181.125H112.062ZM106.75 106.75H96.125V128H106.75V106.75ZM122.688 106.75H133.312V128H122.688V106.75ZM159.875 106.75H149.25V128H159.875V106.75Z" fill="#F6F3E4"/>
</svg>
